<?xml version="1.0" standalone="no"?>
<!DOCTYPE svg PUBLIC "-//W3C//DTD SVG 1.1//EN" "http://www.w3.org/Graphics/SVG/1.1/DTD/svg11.dtd" >
<svg xmlns="http://www.w3.org/2000/svg">
<metadata>Generated by IcoMoon</metadata>
<defs>
<font id="icomoon" horiz-adv-x="1024">
<font-face units-per-em="1024" ascent="960" descent="-64" />
<missing-glyph horiz-adv-x="1024" />
<glyph unicode="&#x20;" horiz-adv-x="0" d="" />
<glyph unicode="&#xe900;" glyph-name="block" d="M512 106.667c93.867 0 174.933 34.133 243.2 102.4s102.4 149.333 102.4 243.2c0 81.067-25.6 149.333-72.533 209.067l-482.133-482.133c59.733-51.2 128-72.533 209.067-72.533zM170.667 448c0-81.067 25.6-149.333 72.533-209.067l482.133 482.133c-59.733 46.933-132.267 72.533-209.067 72.533-93.867 0-174.933-34.133-243.2-102.4s-102.4-149.333-102.4-243.2zM512 874.667c119.467 0 217.6-42.667 302.933-123.733s123.733-183.467 123.733-302.933c0-119.467-42.667-217.6-123.733-302.933-85.333-85.333-183.467-123.733-302.933-123.733s-217.6 42.667-302.933 123.733c-85.333 85.333-123.733 183.467-123.733 302.933s42.667 217.6 123.733 302.933 183.467 123.733 302.933 123.733z" />
<glyph unicode="&#xe901;" glyph-name="bold" d="M554.667 234.667c42.667 0 42.667 8.533 55.467 21.333s21.333 29.867 21.333 46.933c0 21.333-8.533 25.6-21.333 42.667-12.8 12.8-29.867 12.8-51.2 12.8h-179.2v-128l174.933 4.267zM384 661.333v-128h157.867c21.333 0 34.133 0 46.933 17.067 12.8 12.8 21.333 25.6 21.333 46.933s-8.533 34.133-21.333 46.933-29.867 21.333-46.933 21.333h-157.867v-4.267zM665.6 460.8c68.267-29.867 102.4-85.333 102.4-162.133 0-51.2-17.067-102.4-46.933-132.267-34.133-34.133-76.8-59.733-123.733-59.733h-341.333v682.667h302.933c51.2 0 98.133-21.333 132.267-64 34.133-38.4 55.467-85.333 55.467-136.533s-29.867-93.867-81.067-128v0z" />
<glyph unicode="&#xe902;" glyph-name="bubble--outline" d="M512 746.667c-21.333 0-46.933 0-68.267-4.267s-42.667-8.533-68.267-17.067c-21.333-8.533-38.4-12.8-55.467-25.6-17.067-8.533-34.133-21.333-46.933-34.133-29.867-21.333-51.2-51.2-64-76.8s-21.333-59.733-21.333-89.6c0-17.067 4.267-34.133 8.533-51.2s12.8-34.133 21.333-46.933c8.533-17.067 21.333-34.133 38.4-46.933 12.8-12.8 29.867-25.6 46.933-38.4 12.8-8.533 25.6-21.333 34.133-34.133s12.8-25.6 17.067-42.667c0-4.267 0-8.533 0-17.067 0-4.267 0-8.533 0-17.067 4.267 0 4.267 4.267 8.533 8.533s8.533 8.533 8.533 8.533c8.533 8.533 21.333 17.067 34.133 21.333s25.6 8.533 42.667 8.533h17.067c8.533 0 17.067-4.267 25.6-4.267s17.067 0 25.6 0c21.333 0 46.933 0 68.267 4.267s42.667 8.533 68.267 17.067c21.333 8.533 38.4 12.8 55.467 25.6s34.133 21.333 46.933 34.133 51.2 51.2 64 76.8c17.067 29.867 21.333 59.733 21.333 89.6s-8.533 59.733-21.333 89.6c-17.067 29.867-38.4 55.467-64 76.8-12.8 12.8-29.867 21.333-46.933 34.133s-38.4 17.067-55.467 25.6c-21.333 8.533-42.667 12.8-64 17.067s-55.467 8.533-76.8 8.533v0zM512 857.6c59.733 0 115.2-8.533 170.667-25.6s98.133-42.667 140.8-76.8c38.4-34.133 72.533-68.267 93.867-110.933s34.133-89.6 34.133-136.533c0-46.933-12.8-93.867-34.133-136.533s-55.467-81.067-93.867-115.2c-38.4-34.133-85.333-59.733-140.8-76.8-51.2-17.067-110.933-25.6-170.667-25.6-12.8 0-21.333 0-34.133 0s-21.333 0-34.133 4.267c-21.333-21.333-46.933-42.667-72.533-55.467s-51.2-25.6-76.8-34.133c-25.6-8.533-51.2-12.8-81.067-17.067-25.6-4.267-55.467-4.267-81.067-8.533v21.333c29.867 12.8 55.467 34.133 76.8 59.733s34.133 51.2 34.133 81.067c0 4.267 0 8.533 0 12.8s0 8.533 0 12.8c-25.6 17.067-46.933 34.133-68.267 55.467s-38.4 42.667-51.2 64c-12.8 21.333-25.6 46.933-34.133 72.533s-12.8 55.467-12.8 81.067c0 46.933 12.8 93.867 34.133 136.533s55.467 81.067 93.867 110.933c38.4 34.133 85.333 55.467 140.8 76.8s106.667 29.867 166.4 29.867v0z" />
<glyph unicode="&#xe903;" glyph-name="bubble" d="M512 857.6c59.733 0 115.2-8.533 170.667-29.867 55.467-17.067 98.133-42.667 140.8-76.8 38.4-34.133 72.533-68.267 93.867-110.933s34.133-89.6 34.133-136.533-12.8-93.867-34.133-136.533c-21.333-42.667-55.467-81.067-93.867-115.2s-85.333-59.733-140.8-76.8c-51.2-17.067-110.933-25.6-170.667-25.6-12.8 0-21.333 0-34.133 0s-21.333 0-34.133 4.267c-21.333-21.333-46.933-42.667-72.533-55.467s-51.2-25.6-76.8-34.133c-25.6-8.533-55.467-12.8-81.067-17.067s-38.4-4.267-81.067-8.533v21.333c42.667 12.8 55.467 34.133 76.8 59.733s34.133 51.2 34.133 81.067c0 4.267 0 8.533 0 12.8s0 8.533 0 12.8c-25.6 17.067-46.933 34.133-68.267 55.467s-38.4 42.667-51.2 64c-12.8 21.333-25.6 46.933-34.133 72.533s-12.8 55.467-12.8 81.067c0 46.933 12.8 93.867 34.133 136.533s55.467 81.067 93.867 110.933c38.4 34.133 85.333 55.467 140.8 76.8s106.667 34.133 166.4 34.133v0z" />
<glyph unicode="&#xe904;" glyph-name="check" d="M384 320l426.667 426.667 85.333-85.333-512-512-256 256 85.333 85.333 170.667-170.667z" />
<glyph unicode="&#xe905;" glyph-name="chevron_left" d="M597.333 704l-256-256 256-256 85.333 85.333-170.667 170.667 170.667 170.667-85.333 85.333z" />
<glyph unicode="&#xe906;" glyph-name="chevron_right" d="M426.667 704l256-256-256-256-85.333 85.333 170.667 170.667-170.667 170.667 85.333 85.333z" />
<glyph unicode="&#xe907;" glyph-name="close" d="M938.667 789.333l-341.333-341.333 341.333-341.333-85.333-85.333-341.333 341.333-341.333-341.333-85.333 85.333 341.333 341.333-341.333 341.333 85.333 85.333 341.333-341.333 341.333 341.333 85.333-85.333z" />
<glyph unicode="&#xe908;" glyph-name="debug" d="M597.333 448v85.333h-170.667v-85.333h170.667zM597.333 277.333v85.333h-170.667v-85.333h170.667zM853.333 618.667v-85.333h-89.6c4.267 0 4.267-34.133 4.267-42.667v-42.667h85.333v-85.333h-85.333v-42.667c0-8.533 0-42.667-4.267-42.667h89.6v-85.333h-119.467c-21.333-42.667-55.467-68.267-93.867-93.867-38.4-21.333-81.067-34.133-128-34.133s-89.6 12.8-128 34.133-68.267 51.2-93.867 93.867h-119.467v85.333h89.6c-4.267 0-4.267 34.133-4.267 42.667v42.667h-85.333v85.333h85.333v42.667c0 8.533 0 42.667 4.267 42.667h-89.6v85.333h119.467c21.333 42.667 46.933 59.733 76.8 85.333l-68.267 68.267 59.733 59.733 93.867-93.867c21.333 4.267 38.4 4.267 59.733 4.267s38.4 0 59.733-4.267l93.867 93.867 59.733-59.733-68.267-68.267c34.133-21.333 59.733-42.667 76.8-85.333h119.467z" />
<glyph unicode="&#xe909;" glyph-name="delete" d="M810.667 789.333v-85.333h-597.333v85.333h149.333l42.667 42.667h213.333l42.667-42.667h149.333zM256 149.333v512h512v-512c0-21.333-8.533-42.667-25.6-59.733s-38.4-25.6-59.733-25.6h-341.333c-21.333 0-42.667 8.533-59.733 25.6s-25.6 17.067-25.6 59.733v0z" />
<glyph unicode="&#xe90a;" glyph-name="download" d="M213.333 149.333h597.333v-85.333h-597.333v85.333zM810.667 533.333l-298.667-298.667-298.667 298.667h170.667v298.667h256v-298.667h170.667z" />
<glyph unicode="&#xe90b;" glyph-name="edit" d="M883.2 657.067l-76.8-76.8-157.867 157.867 76.8 76.8c8.533 8.533 17.067 12.8 29.867 12.8s21.333-4.267 29.867-12.8l98.133-98.133c8.533-8.533 12.8-17.067 12.8-29.867 0-8.533-4.267-21.333-12.8-29.867v0zM128 226.133l469.333 469.333 157.867-162.133-469.333-469.333h-162.133v162.133z" />
<glyph unicode="&#xe90c;" glyph-name="enlarge" d="M938.667 874.667h-345.6l132.267-132.267-157.867-162.133 81.067-81.067 157.867 162.133 132.267-132.267v345.6zM938.667 21.333v345.6l-132.267-132.267-157.867 162.133-81.067-81.067 157.867-162.133-132.267-132.267h345.6zM85.333 21.333h345.6l-132.267 132.267 157.867 162.133-81.067 81.067-157.867-162.133-132.267 132.267v-345.6zM85.333 874.667v-345.6l132.267 132.267 157.867-162.133 81.067 81.067-157.867 162.133 132.267 132.267h-345.6z" />
<glyph unicode="&#xe90d;" glyph-name="expand_less" d="M256 362.667l256 256 256-256-85.333-85.333-170.667 170.667-170.667-170.667-85.333 85.333z" />
<glyph unicode="&#xe90e;" glyph-name="expand_more" d="M256 533.333l256-256 256 256-85.333 85.333-170.667-170.667-170.667 170.667-85.333-85.333z" />
<glyph unicode="&#xe90f;" glyph-name="facebook" d="M866.133 874.667h-708.267c-21.333 0-38.4-4.267-51.2-17.067s-17.067-29.867-17.067-51.2v-708.267c0-21.333 4.267-38.4 17.067-51.2s29.867-17.067 51.2-17.067h354.133v384h-128v85.333h128v68.267c0 42.667 17.067 72.533 46.933 106.667s72.533 38.4 115.2 38.4h93.867v-85.333h-93.867c-12.8 0-17.067-8.533-29.867-21.333-12.8-8.533-8.533-25.6-8.533-42.667v-68.267h145.067l-25.6-85.333h-119.467v-384h226.133c21.333 0 38.4 4.267 51.2 17.067s17.067 29.867 17.067 51.2v708.267c0 21.333-4.267 38.4-17.067 51.2s-21.333 21.333-46.933 21.333z" />
<glyph unicode="&#xe910;" glyph-name="favourite" d="M512 64l-64 55.467c-72.533 64-123.733 110.933-153.6 140.8-34.133 29.867-68.267 68.267-106.667 110.933s-68.267 85.333-81.067 119.467c-12.8 34.133-21.333 72.533-21.333 110.933 0 64 21.333 119.467 68.267 162.133s102.4 68.267 166.4 68.267c76.8 0 140.8-29.867 192-89.6 51.2 59.733 115.2 89.6 192 89.6 68.267 0 123.733-21.333 166.4-68.267 42.667-42.667 68.267-98.133 68.267-162.133 0-51.2-17.067-102.4-51.2-157.867s-72.533-102.4-115.2-145.067c-42.667-42.667-106.667-102.4-200.533-183.467l-59.733-51.2z" />
<glyph unicode="&#xe911;" glyph-name="flag" d="M597.333 746.667h256v-469.333h-298.667l-38.4 85.333h-260.267v-298.667h-85.333v768h384l42.667-85.333z" />
<glyph unicode="&#xe912;" glyph-name="formula" d="M768 789.333v-128h-298.667l213.333-213.333-213.333-213.333h298.667v-128h-512v85.333l256 256-256 256v85.333h512z" />
<glyph unicode="&#xe913;" glyph-name="github" d="M512 874.667c-59.733 0-115.2-12.8-170.667-34.133-51.2-21.333-98.133-55.467-140.8-93.867-38.4-38.4-72.533-85.333-93.867-140.8-21.333-51.2-34.133-110.933-34.133-170.667 0-46.933 8.533-93.867 21.333-136.533s34.133-85.333 64-119.467c25.6-38.4 59.733-68.267 93.867-93.867 38.4-25.6 76.8-46.933 119.467-64 8.533 0 17.067 0 21.333 4.267s8.533 8.533 8.533 17.067v81.067c-59.733-12.8-98.133-8.533-119.467 17.067l-29.867 34.133c-8.533 25.6-21.333 42.667-34.133 51.2l-17.067 12.8c-21.333 12.8-25.6 21.333-12.8 21.333l17.067 4.267c21.333 0 38.4-8.533 46.933-25.6l17.067-21.333c21.333-34.133 42.667-46.933 68.267-46.933s46.933 4.267 59.733 12.8c0 12.8 4.267 25.6 12.8 34.133 4.267 8.533 12.8 17.067 17.067 21.333-25.6 4.267-46.933 8.533-72.533 17.067s-46.933 17.067-64 34.133c-17.067 17.067-34.133 38.4-46.933 64s-17.067 59.733-17.067 102.4c0 25.6 4.267 46.933 12.8 64 8.533 21.333 17.067 38.4 34.133 51.2 0 4.267-4.267 17.067-8.533 38.4s0 46.933 12.8 76.8h29.867c21.333 0 51.2-17.067 93.867-42.667 17.067 4.267 34.133 8.533 55.467 8.533 17.067 4.267 38.4 4.267 55.467 4.267s38.4 0 55.467-4.267c17.067-4.267 38.4-4.267 51.2-8.533 42.667 29.867 72.533 42.667 93.867 42.667h29.867c12.8-29.867 17.067-55.467 12.8-76.8s-8.533-34.133-8.533-38.4c12.8-17.067 25.6-34.133 34.133-51.2 8.533-21.333 12.8-42.667 12.8-64 0-42.667-4.267-76.8-17.067-102.4s-25.6-46.933-46.933-64c-17.067-17.067-38.4-25.6-64-34.133s-46.933-12.8-72.533-17.067c8.533-4.267 17.067-17.067 21.333-29.867s8.533-29.867 8.533-51.2c0-29.867 0-55.467 0-76.8s0-34.133 0-42.667c0-4.267 4.267-12.8 8.533-17.067s12.8-8.533 21.333-4.267c42.667 12.8 85.333 34.133 119.467 64 38.4 25.6 68.267 59.733 93.867 93.867s46.933 76.8 64 119.467c12.8 42.667 21.333 89.6 21.333 136.533 0 59.733-12.8 115.2-34.133 170.667-21.333 51.2-55.467 98.133-93.867 140.8-38.4 38.4-85.333 72.533-140.8 93.867-55.467 25.6-110.933 38.4-170.667 38.4v0z" />
<glyph unicode="&#xe914;" glyph-name="global" d="M512 874.667c-59.733 0-115.2-12.8-166.4-34.133s-98.133-51.2-136.533-89.6-68.267-85.333-89.6-136.533c-21.333-51.2-34.133-106.667-34.133-166.4s12.8-115.2 34.133-166.4c21.333-51.2 51.2-98.133 89.6-136.533s85.333-68.267 136.533-89.6c51.2-21.333 106.667-34.133 166.4-34.133s115.2 12.8 166.4 34.133c51.2 21.333 98.133 51.2 136.533 89.6s68.267 85.333 89.6 136.533c21.333 51.2 34.133 106.667 34.133 166.4s-12.8 115.2-34.133 166.4c-21.333 51.2-51.2 98.133-89.6 136.533s-85.333 68.267-136.533 89.6c-51.2 21.333-106.667 34.133-166.4 34.133zM512 76.8c-25.6 0-51.2 4.267-76.8 8.533s-46.933 12.8-72.533 21.333l196.267 217.6c0 0 4.267 4.267 4.267 8.533s0 8.533 0 8.533v81.067c0 8.533-4.267 12.8-8.533 17.067s-12.8 8.533-17.067 8.533c-21.333 0-46.933 4.267-68.267 17.067-21.333 8.533-42.667 21.333-64 34.133-17.067 12.8-34.133 21.333-46.933 34.133s-17.067 17.067-17.067 17.067c-4.267 0-4.267 4.267-8.533 4.267s-8.533 4.267-8.533 4.267h-106.667c-8.533 0-12.8-4.267-17.067-8.533s-8.533-12.8-8.533-17.067v-162.133c0-4.267 0-8.533 4.267-12.8s8.533-8.533 12.8-8.533l93.867-46.933v-157.867c-25.6 17.067-46.933 38.4-68.267 59.733s-38.4 46.933-51.2 72.533c-12.8 25.6-25.6 55.467-34.133 85.333s-12.8 59.733-12.8 89.6c0 29.867 4.267 55.467 8.533 85.333s12.8 51.2 25.6 76.8h98.133c4.267 0 8.533 0 8.533 0s8.533 4.267 8.533 4.267l106.667 106.667c0 4.267 4.267 4.267 4.267 8.533s4.267 8.533 4.267 8.533v64c17.067 4.267 34.133 8.533 51.2 12.8s34.133 4.267 55.467 4.267c29.867 0 59.733-4.267 85.333-8.533s55.467-17.067 76.8-29.867l-8.533-8.533c-17.067-17.067-25.6-34.133-34.133-51.2-8.533-21.333-12.8-38.4-12.8-59.733s4.267-42.667 12.8-59.733c8.533-21.333 21.333-38.4 34.133-51.2 17.067-17.067 34.133-25.6 51.2-34.133 21.333-8.533 38.4-12.8 59.733-12.8h8.533c4.267-8.533 4.267-25.6 8.533-42.667s4.267-42.667 4.267-68.267c0-25.6 0-55.467-4.267-89.6s-8.533-68.267-21.333-106.667c0 0 0 0 0 0s0 0 0 0c-17.067-17.067-34.133-34.133-55.467-46.933s-42.667-25.6-64-34.133c-21.333-8.533-46.933-17.067-72.533-21.333-12.8-21.333-38.4-21.333-64-21.333v0z" />
<glyph unicode="&#xe915;" glyph-name="google_plus" d="M341.333 486.4v-81.067h170.667c-4.267-42.667-17.067-51.2-38.4-81.067s-64-46.933-119.467-46.933c-25.6 0-46.933 4.267-68.267 12.8s-38.4 21.333-55.467 38.4c-17.067 17.067-29.867 34.133-38.4 55.467s-12.8 42.667-12.8 68.267c0 25.6 4.267 46.933 12.8 68.267s21.333 38.4 38.4 55.467 34.133 29.867 55.467 38.4c21.333 8.533 42.667 12.8 68.267 12.8s51.2-4.267 68.267-12.8c17.067-8.533 34.133-17.067 42.667-29.867l76.8 72.533c-25.6 21.333-51.2 38.4-81.067 51.2s-64 17.067-102.4 17.067c-38.4 0-76.8-8.533-106.667-21.333s-64-34.133-89.6-59.733-46.933-55.467-59.733-89.6c-12.8-34.133-21.333-68.267-21.333-106.667s8.533-76.8 21.333-106.667c12.8-34.133 34.133-64 59.733-89.6s55.467-46.933 89.6-59.733 68.267-21.333 106.667-21.333c38.4 0 76.8 8.533 110.933 21.333s59.733 34.133 85.333 55.467c21.333 25.6 42.667 51.2 55.467 85.333s17.067 68.267 17.067 110.933c0 8.533 0 17.067 0 25.6s0 21.333-4.267 21.333l-281.6-4.267zM938.667 490.667h-85.333v85.333h-85.333v-85.333h-85.333v-85.333h85.333v-85.333h85.333v85.333h85.333v85.333z" />
<glyph unicode="&#xe916;" glyph-name="help" d="M512 704c46.933 0 85.333-17.067 119.467-51.2s51.2-72.533 51.2-119.467c0-34.133-21.333-72.533-64-110.933s-64-59.733-64-102.4h-85.333c0 42.667 8.533 55.467 21.333 81.067 12.8 21.333 29.867 38.4 42.667 46.933 17.067 8.533 29.867 21.333 42.667 38.4 12.8 12.8 21.333 29.867 21.333 51.2s-8.533 42.667-25.6 59.733c-17.067 17.067-38.4 25.6-59.733 25.6s-42.667-8.533-59.733-25.6c-17.067-17.067-25.6-17.067-25.6-59.733h-85.333c0 42.667 17.067 85.333 51.2 119.467 34.133 29.867 72.533 46.933 119.467 46.933zM512 106.667c93.867 0 174.933 34.133 238.933 102.4 68.267 68.267 102.4 149.333 102.4 238.933 0 93.867-34.133 174.933-102.4 238.933s-149.333 102.4-238.933 102.4-174.933-34.133-238.933-102.4-102.4-149.333-102.4-238.933c0-93.867 34.133-174.933 102.4-238.933 64-68.267 145.067-102.4 238.933-102.4zM512 874.667c119.467 0 217.6-42.667 302.933-123.733s123.733-183.467 123.733-302.933c0-119.467-42.667-217.6-123.733-302.933s-183.467-123.733-302.933-123.733-217.6 42.667-302.933 123.733-123.733 183.467-123.733 302.933 42.667 217.6 123.733 302.933 183.467 123.733 302.933 123.733zM469.333 192v85.333h85.333v-85.333h-85.333z" />
<glyph unicode="&#xe917;" glyph-name="hourglass" d="M512 469.333l170.667 170.667v149.333h-341.333v-149.333l170.667-170.667zM682.667 234.667l-170.667 179.2-170.667-157.867v-149.333h341.333v128zM256 874.667h512v-256l-170.667-170.667 170.667-170.667v-256h-512v256l170.667 170.667-170.667 170.667v256z" />
<glyph unicode="&#xe918;" glyph-name="insert--image" d="M362.667 384l-149.333-192h597.333l-192 256-149.333-192-106.667 128zM896 149.333c0-21.333-8.533-42.667-25.6-59.733s-38.4-25.6-59.733-25.6h-597.333c-21.333 0-42.667 8.533-59.733 25.6s-25.6 38.4-25.6 59.733v597.333c0 21.333 8.533 42.667 25.6 59.733s38.4 25.6 59.733 25.6h597.333c21.333 0 42.667-8.533 59.733-25.6s25.6-38.4 25.6-59.733v-597.333z" />
<glyph unicode="&#xe919;" glyph-name="insert--link" d="M725.333 661.333c59.733 0 106.667-21.333 149.333-64s64-93.867 64-149.333c0-59.733-21.333-106.667-64-149.333s-89.6-64-149.333-64h-170.667v85.333h170.667c34.133 0 68.267 12.8 93.867 38.4s38.4 55.467 38.4 93.867c0 34.133-12.8 64-38.4 89.6s-55.467 38.4-93.867 38.4h-170.667v85.333h170.667zM341.333 405.333v85.333h341.333v-85.333h-341.333zM166.4 448c0-34.133 12.8-64 38.4-89.6s55.467-38.4 93.867-38.4h170.667v-85.333h-170.667c-59.733 0-106.667 21.333-149.333 64s-64 93.867-64 149.333c0 59.733 21.333 106.667 64 149.333s89.6 64 149.333 64h170.667v-85.333h-170.667c-34.133 0-68.267-12.8-93.867-38.4s-38.4-55.467-38.4-89.6z" />
<glyph unicode="&#xe91a;" glyph-name="italic" d="M426.667 789.333h384v-170.667h-149.333l-157.867-341.333h98.133v-170.667h-384v170.667h145.067l157.867 341.333h-93.867v170.667z" />
<glyph unicode="&#xe91b;" glyph-name="link" d="M452.267 341.333c-4.267 0-12.8 0-17.067 4.267s-8.533 4.267-17.067 8.533c-21.333 21.333-34.133 42.667-46.933 68.267-8.533 25.6-17.067 51.2-17.067 76.8s4.267 51.2 17.067 76.8c8.533 25.6 25.6 46.933 46.933 68.267l162.133 162.133c21.333 21.333 42.667 34.133 68.267 46.933 25.6 8.533 51.2 17.067 81.067 17.067s55.467-4.267 81.067-17.067c25.6-8.533 46.933-25.6 68.267-46.933s34.133-42.667 46.933-68.267c8.533-25.6 17.067-51.2 17.067-76.8s-4.267-51.2-17.067-76.8c-8.533-25.6-25.6-46.933-46.933-68.267l-76.8-72.533c-8.533-8.533-17.067-12.8-29.867-12.8s-21.333 4.267-29.867 12.8c-8.533 8.533-12.8 17.067-12.8 29.867s4.267 21.333 12.8 29.867l76.8 76.8c21.333 21.333 34.133 51.2 34.133 85.333s-12.8 59.733-34.133 85.333c-12.8 12.8-25.6 21.333-38.4 25.6s-29.867 8.533-46.933 8.533c-17.067 0-29.867-4.267-46.933-8.533-12.8-4.267-25.6-12.8-38.4-25.6l-162.133-162.133c-21.333-21.333-34.133-51.2-34.133-85.333s12.8-59.733 34.133-85.333c8.533-8.533 12.8-17.067 12.8-29.867s-4.267-21.333-12.8-34.133c-4.267-4.267-8.533-8.533-17.067-8.533-8.533-4.267-12.8-4.267-17.067-4.267v0zM294.4 21.333c-25.6 0-55.467 4.267-81.067 17.067-25.6 8.533-46.933 25.6-68.267 42.667-21.333 21.333-34.133 42.667-46.933 68.267s-17.067 51.2-17.067 76.8c0 25.6 4.267 51.2 17.067 76.8s25.6 46.933 46.933 68.267l76.8 76.8c8.533 8.533 17.067 12.8 29.867 12.8s21.333-4.267 29.867-12.8 12.8-17.067 12.8-29.867-4.267-21.333-12.8-29.867l-76.8-76.8c-21.333-21.333-34.133-51.2-34.133-85.333s12.8-59.733 34.133-85.333c12.8-12.8 25.6-21.333 38.4-25.6s29.867-8.533 46.933-8.533c17.067 0 29.867 4.267 46.933 8.533s25.6 12.8 38.4 25.6l162.133 162.133c21.333 21.333 34.133 51.2 34.133 85.333s-12.8 59.733-34.133 85.333c-8.533 8.533-12.8 17.067-12.8 29.867s4.267 21.333 12.8 29.867c8.533 8.533 17.067 12.8 29.867 12.8s21.333-4.267 34.133-12.8c21.333-21.333 34.133-42.667 46.933-68.267 8.533-25.6 17.067-51.2 17.067-76.8s-4.267-51.2-17.067-76.8c-8.533-25.6-25.6-46.933-46.933-68.267l-162.133-162.133c-21.333-21.333-42.667-34.133-68.267-42.667-25.6-12.8-51.2-17.067-76.8-17.067v0z" />
<glyph unicode="&#xe91c;" glyph-name="linkedin" d="M857.6 874.667h-691.2c-21.333 0-42.667-8.533-55.467-25.6s-25.6-34.133-25.6-55.467v-691.2c0-21.333 8.533-42.667 25.6-55.467s34.133-25.6 55.467-25.6h691.2c21.333 0 42.667 8.533 55.467 25.6s25.6 34.133 25.6 55.467v691.2c0 21.333-8.533 42.667-25.6 55.467s-34.133 25.6-55.467 25.6zM405.333 183.467h-106.667v371.2h106.667v-371.2zM354.133 610.133c-12.8 0-25.6 4.267-38.4 17.067-8.533 8.533-17.067 21.333-17.067 38.4 0 12.8 4.267 25.6 17.067 38.4 8.533 8.533 21.333 17.067 38.4 17.067s25.6-4.267 38.4-17.067c8.533-8.533 17.067-21.333 17.067-38.4s-4.267-25.6-17.067-38.4c-12.8-12.8-25.6-17.067-38.4-17.067v0zM776.533 183.467h-106.667v213.333c0 12.8-4.267 25.6-17.067 38.4-8.533 8.533-21.333 17.067-38.4 17.067s-25.6-4.267-38.4-17.067c-8.533-8.533-17.067-21.333-17.067-38.4v-213.333h-106.667v371.2h106.667v-68.267c12.8 12.8 25.6 29.867 38.4 42.667 17.067 12.8 34.133 21.333 51.2 21.333 34.133 0 59.733-12.8 85.333-38.4 21.333-25.6 34.133-59.733 34.133-93.867v-234.667h8.533z" />
<glyph unicode="&#xe91d;" glyph-name="mail" d="M853.333 618.667v85.333l-341.333-213.333-341.333 213.333v-85.333l341.333-213.333 341.333 213.333zM853.333 789.333c21.333 0 42.667-8.533 59.733-25.6s25.6-38.4 25.6-59.733v-512c0-21.333-8.533-42.667-25.6-59.733s-38.4-25.6-59.733-25.6h-682.667c-21.333 0-42.667 8.533-59.733 25.6s-25.6 38.4-25.6 59.733v512c0 21.333 8.533 42.667 25.6 59.733s38.4 25.6 59.733 25.6h682.667z" />
<glyph unicode="&#xe91e;" glyph-name="message" d="M768 618.667v85.333h-512v-85.333h512zM768 490.667v85.333h-512v-85.333h512zM768 362.667v85.333h-512v-85.333h512zM853.333 874.667c21.333 0 42.667-8.533 59.733-25.6s25.6-38.4 25.6-59.733v-512c0-21.333-8.533-42.667-25.6-59.733s-38.4-25.6-59.733-25.6h-597.333l-170.667-170.667v768c0 21.333 8.533 42.667 25.6 59.733s38.4 25.6 59.733 25.6h682.667z" />
<glyph unicode="&#xe91f;" glyph-name="ordered_list" d="M298.667 405.333v85.333h640v-85.333h-640zM298.667 149.333v85.333h640v-85.333h-640zM298.667 746.667h640v-85.333h-640v85.333zM85.333 490.667v42.667h128v-38.4l-76.8-89.6h76.8v-42.667h-128v38.4l76.8 89.6h-76.8zM128 618.667v128h-42.667v42.667h85.333v-170.667h-42.667zM85.333 234.667v42.667h128v-170.667h-128v42.667h85.333v21.333h-42.667v42.667h42.667v21.333h-85.333z" />
<glyph unicode="&#xe920;" glyph-name="play" d="M512 106.667c93.867 0 174.933 34.133 238.933 102.4 68.267 68.267 102.4 149.333 102.4 238.933 0 93.867-34.133 174.933-102.4 238.933s-149.333 102.4-238.933 102.4-174.933-34.133-238.933-102.4-102.4-149.333-102.4-238.933c0-93.867 34.133-174.933 102.4-238.933 64-68.267 145.067-102.4 238.933-102.4zM512 874.667c119.467 0 217.6-42.667 302.933-123.733s123.733-183.467 123.733-302.933c0-119.467-42.667-217.6-123.733-302.933s-183.467-123.733-302.933-123.733-217.6 42.667-302.933 123.733-123.733 183.467-123.733 302.933 42.667 217.6 123.733 302.933 183.467 123.733 302.933 123.733zM426.667 256v384l256-192-256-192z" />
<glyph unicode="&#xe921;" glyph-name="preview" d="M512 576c34.133 0 64-12.8 89.6-38.4s38.4-55.467 38.4-89.6c0-34.133-12.8-64-38.4-89.6s-55.467-38.4-89.6-38.4-64 12.8-89.6 38.4-38.4 55.467-38.4 89.6c0 34.133 12.8 64 38.4 89.6s55.467 38.4 89.6 38.4zM512 234.667c59.733 0 110.933 21.333 149.333 64 42.667 42.667 64 93.867 64 149.333s-21.333 110.933-64 149.333c-42.667 42.667-93.867 64-149.333 64s-110.933-21.333-149.333-64c-42.667-42.667-64-93.867-64-149.333s21.333-110.933 64-149.333c38.4-42.667 89.6-64 149.333-64zM512 768c106.667 0 200.533-29.867 285.867-89.6s145.067-136.533 183.467-230.4c-38.4-93.867-98.133-174.933-183.467-230.4s-179.2-89.6-285.867-89.6c-106.667 0-200.533 29.867-285.867 89.6s-145.067 136.533-183.467 230.4c38.4 93.867 98.133 174.933 183.467 230.4s179.2 89.6 285.867 89.6z" />
<glyph unicode="&#xe922;" glyph-name="qq" d="M209.067 490.667c0 4.267-4.267 12.8-4.267 25.6 0 4.267 0 12.8 4.267 21.333s8.533 17.067 12.8 21.333c0 8.533 0 12.8 4.267 25.6 4.267 8.533 4.267 17.067 12.8 21.333 0 42.667 17.067 89.6 46.933 136.533s64 81.067 106.667 102.4c42.667 21.333 98.133 29.867 157.867 29.867 42.667 0 85.333-8.533 128-25.6 17.067-8.533 29.867-12.8 46.933-21.333 12.8-8.533 25.6-17.067 34.133-25.6s17.067-21.333 25.6-34.133 17.067-25.6 21.333-34.133c4.267-12.8 8.533-25.6 17.067-42.667 4.267-17.067 8.533-29.867 12.8-42.667s4.267-29.867 8.533-46.933v0c17.067-25.6 25.6-51.2 25.6-72.533 0-4.267 0-12.8-4.267-17.067-4.267-8.533-4.267-12.8-4.267-17.067v0c0 0 0 0 0 0s0 0 0 0c25.6-34.133 46.933-68.267 59.733-102.4 12.8-29.867 21.333-64 21.333-98.133 0-12.8-4.267-29.867-8.533-46.933-8.533-17.067-17.067-25.6-25.6-25.6-4.267 0-4.267 0-8.533 4.267-4.267 0-4.267 4.267-8.533 8.533s-4.267 8.533-8.533 12.8-4.267 8.533-8.533 12.8c0 4.267-4.267 8.533-8.533 12.8 0 4.267-4.267 8.533-4.267 8.533s0 0 0 0h-4.267c-17.067-46.933-38.4-85.333-64-106.667 4.267-8.533 17.067-12.8 29.867-17.067s25.6-12.8 34.133-21.333c8.533-8.533 12.8-17.067 17.067-29.867 0 0 0-4.267 0-8.533s-4.267-8.533-4.267-8.533c-21.333-29.867-68.267-46.933-145.067-46.933-17.067 0-34.133 0-55.467 4.267-17.067 4.267-34.133 4.267-46.933 8.533s-29.867 8.533-51.2 12.8c-4.267 0-8.533 4.267-12.8 4.267s-12.8 0-21.333 0c-8.533 0-17.067 0-21.333 0-12.8-12.8-34.133-25.6-64-29.867s-55.467-8.533-81.067-8.533c-12.8 0-21.333 0-34.133 0-8.533 0-25.6 0-46.933 4.267-21.333 0-34.133 4.267-51.2 8.533-12.8 4.267-25.6 12.8-34.133 21.333s-17.067 17.067-17.067 29.867c0 12.8 0 21.333 4.267 29.867 4.267 4.267 8.533 12.8 21.333 21.333 4.267 0 12.8 4.267 21.333 4.267 8.533 4.267 17.067 4.267 25.6 4.267 0 0 4.267 0 8.533 0 0 0 0 0 0 0v0c-17.067 4.267-34.133 21.333-51.2 51.2s-29.867 55.467-34.133 76.8v0c0 0-4.267-4.267-4.267-8.533-4.267-12.8-17.067-25.6-25.6-34.133-12.8-8.533-25.6-17.067-38.4-17.067 0 0-4.267 0-4.267 4.267 0 0 0 0 0 0-8.533 17.067-12.8 34.133-12.8 46.933-12.8 81.067 25.6 153.6 110.933 213.333v0z" />
<glyph unicode="&#xe923;" glyph-name="quote" d="M605.867 192l93.867 213.333h-145.067v298.667h298.667v-302.933l-106.667-209.067h-140.8zM230.4 192l93.867 213.333h-153.6v298.667h298.667v-302.933l-98.133-209.067c0 0-140.8 0-140.8 0z" />
<glyph unicode="&#xe924;" glyph-name="reply" d="M426.667 597.333c128-21.333 247.467-72.533 320-157.867 76.8-85.333 123.733-187.733 149.333-311.467-102.4 145.067-256 217.6-469.333 217.6v-174.933l-298.667 298.667 298.667 298.667v-170.667z" />
<glyph unicode="&#xe925;" glyph-name="schedule" d="M533.333 661.333v-226.133l192-115.2-34.133-55.467-221.867 136.533v256h64zM512 106.667c93.867 0 174.933 34.133 238.933 102.4 68.267 68.267 102.4 149.333 102.4 238.933 0 93.867-34.133 174.933-102.4 238.933s-149.333 102.4-238.933 102.4-174.933-34.133-238.933-102.4-102.4-149.333-102.4-238.933c0-93.867 34.133-174.933 102.4-238.933 64-68.267 145.067-102.4 238.933-102.4zM512 874.667c119.467 0 217.6-42.667 302.933-123.733s123.733-183.467 123.733-302.933c0-119.467-42.667-217.6-123.733-302.933s-183.467-123.733-302.933-123.733-217.6 42.667-302.933 123.733-123.733 183.467-123.733 302.933 42.667 217.6 123.733 302.933 183.467 123.733 302.933 123.733z" />
<glyph unicode="&#xe926;" glyph-name="search" d="M418.133 349.867c51.2 0 98.133 17.067 136.533 55.467s55.467 81.067 55.467 136.533c0 51.2-17.067 98.133-55.467 136.533s-81.067 55.467-136.533 55.467-98.133-17.067-136.533-55.467-55.467-81.067-55.467-136.533c0-51.2 17.067-98.133 55.467-136.533s81.067-55.467 136.533-55.467zM674.133 362.667l213.333-217.6-68.267-68.267-217.6 209.067v34.133l-4.267 12.8c-51.2-42.667-106.667-64-179.2-64-76.8 0-140.8 25.6-196.267 81.067s-81.067 119.467-81.067 196.267c0 76.8 25.6 145.067 81.067 196.267s119.467 81.067 196.267 81.067c76.8 0 140.8-25.6 196.267-81.067s81.067-119.467 81.067-196.267c0-68.267-21.333-123.733-64-174.933l12.8-4.267h29.867z" />
<glyph unicode="&#xe927;" glyph-name="send" d="M938.667 789.333c0 0-59.733-17.067-145.067-46.933s-183.467-64-281.6-98.133c-98.133-34.133-196.267-68.267-277.333-98.133-85.333-29.867-128-46.933-132.267-46.933s-12.8-4.267-12.8-8.533c0-4.267 4.267-8.533 8.533-12.8 4.267 0 17.067-8.533 34.133-12.8 17.067-8.533 38.4-12.8 59.733-21.333s38.4-17.067 55.467-21.333l25.6-8.533 102.4-42.667 76.8 55.467c51.2 38.4 110.933 81.067 174.933 128s119.467 89.6 174.933 128c51.2 38.4 81.067 59.733 81.067 59.733 4.267 0 4.267 0 8.533 0s4.267-4.267 0-8.533c0 0-21.333-21.333-59.733-64s-81.067-85.333-123.733-136.533c-46.933-46.933-85.333-93.867-123.733-132.267l-76.8-85.333 29.867-12.8 34.133-17.067c21.333-12.8 46.933-25.6 76.8-42.667 29.867-12.8 55.467-29.867 76.8-42.667 25.6-12.8 38.4-21.333 42.667-21.333 4.267-4.267 12.8-4.267 21.333 0s12.8 8.533 12.8 17.067c0 4.267 8.533 38.4 21.333 98.133s29.867 123.733 46.933 196.267 29.867 136.533 46.933 192c12.8 59.733 21.333 89.6 21.333 93.867 0 8.533 12.8 12.8 8.533 17.067-8.533-4.267-8.533-4.267-8.533-4.267v0zM384 115.2c0-4.267-4.267-8.533 0-8.533s4.267 0 8.533 4.267c4.267 0 8.533 8.533 25.6 21.333 12.8 12.8 29.867 25.6 42.667 42.667 17.067 12.8 29.867 25.6 42.667 38.4l21.333 17.067-140.8 76.8v-192z" />
<glyph unicode="&#xe928;" glyph-name="settings" d="M512 298.667c42.667 0 76.8 12.8 106.667 42.667s42.667 64 42.667 106.667c0 42.667-12.8 76.8-42.667 106.667s-64 42.667-106.667 42.667-76.8-12.8-106.667-42.667c-29.867-29.867-42.667-64-42.667-106.667s12.8-76.8 42.667-106.667c29.867-29.867 64-42.667 106.667-42.667zM832 405.333l89.6-68.267c8.533-8.533 12.8-17.067 4.267-29.867l-85.333-149.333c-4.267-8.533-12.8-12.8-25.6-8.533l-106.667 42.667c-29.867-21.333-51.2-34.133-72.533-42.667l-17.067-110.933c-4.267-12.8-8.533-17.067-21.333-17.067h-170.667c-8.533 0-17.067 4.267-21.333 17.067l-17.067 110.933c-25.6 8.533-51.2 25.6-72.533 42.667l-106.667-42.667c-12.8-4.267-21.333 0-25.6 8.533l-85.333 149.333c-8.533 12.8-4.267 21.333 4.267 29.867l89.6 68.267c0 8.533 0 21.333 0 42.667s0 34.133 0 42.667l-89.6 68.267c-8.533 8.533-12.8 17.067-4.267 29.867l85.333 149.333c4.267 8.533 12.8 12.8 25.6 8.533l106.667-42.667c29.867 21.333 51.2 34.133 72.533 42.667l17.067 110.933c4.267 12.8 8.533 17.067 21.333 17.067h170.667c8.533 0 17.067-4.267 21.333-17.067l17.067-110.933c25.6-8.533 51.2-25.6 72.533-42.667l106.667 42.667c12.8 4.267 21.333 0 25.6-8.533l85.333-149.333c8.533-12.8 4.267-21.333-4.267-29.867l-89.6-68.267c0-8.533 0-21.333 0-42.667s0-34.133 0-42.667z" />
<glyph unicode="&#xe929;" glyph-name="shrink" d="M554.667 490.667h358.4l-132.267 136.533 162.133 162.133-81.067 81.067-166.4-157.867-136.533 136.533v-358.4zM554.667 405.333v-358.4l136.533 132.267 162.133-162.133 81.067 81.067-157.867 166.4 136.533 140.8h-358.4zM469.333 405.333h-358.4l132.267-140.8-162.133-162.133 81.067-81.067 166.4 157.867 136.533-132.267v358.4zM469.333 490.667v358.4l-136.533-132.267-162.133 162.133-81.067-81.067 157.867-166.4-136.533-136.533h358.4z" />
<glyph unicode="&#xe92a;" glyph-name="star--outline" d="M947.2 546.133l-302.933 42.667-136.533 273.067-136.533-273.067-302.933-42.667 217.6-213.333-51.2-298.667 268.8 140.8 268.8-140.8-51.2 298.667 226.133 213.333zM512 243.2l-192-102.4 34.133 213.333-153.6 149.333 213.333 29.867 93.867 192 93.867-192 213.333-29.867-153.6-149.333 34.133-213.333-183.467 102.4z" />
<glyph unicode="&#xe92b;" glyph-name="star" d="M947.2 546.133l-302.933 42.667-136.533 273.067-136.533-273.067-302.933-42.667 217.6-213.333-51.2-298.667 268.8 140.8 268.8-140.8-51.2 298.667 226.133 213.333z" />
<glyph unicode="&#xe92c;" glyph-name="statistics" d="M512 396.8v371.2c-42.667 0-106.667-8.533-149.333-29.867s-85.333-46.933-119.467-81.067c-34.133-34.133-64-72.533-81.067-119.467-21.333-46.933-29.867-93.867-29.867-145.067s8.533-98.133 29.867-145.067c21.333-46.933 46.933-85.333 81.067-119.467s72.533-59.733 119.467-81.067c46.933-21.333 93.867-29.867 145.067-29.867s102.4 8.533 145.067 29.867c46.933 21.333 85.333 46.933 119.467 81.067s59.733 72.533 81.067 119.467c21.333 46.933 29.867 93.867 29.867 145.067 0 29.867-4.267 59.733-8.533 85.333-8.533 29.867-12.8 55.467-25.6 81.067l-337.067-162.133zM891.733 669.867c-17.067 29.867-34.133 59.733-59.733 85.333s-46.933 46.933-76.8 64c-29.867 17.067-59.733 29.867-93.867 42.667-34.133 8.533-64 17.067-106.667 17.067v-371.2l337.067 162.133z" />
<glyph unicode="&#xe92d;" glyph-name="tag" d="M900.267 874.667h-324.267c-12.8 0-25.6 0-38.4-8.533s-25.6-12.8-34.133-21.333l-405.333-405.333c-8.533-8.533-12.8-17.067-12.8-29.867s4.267-21.333 12.8-29.867l349.867-349.867c8.533-8.533 17.067-12.8 29.867-12.8s21.333 4.267 29.867 12.8l405.333 405.333c8.533 8.533 12.8 17.067 21.333 29.867 4.267 12.8 8.533 25.6 8.533 38.4v324.267c0 12.8-4.267 21.333-12.8 29.867-12.8 12.8-21.333 17.067-29.867 17.067v0zM695.467 550.4c-21.333 0-42.667 8.533-59.733 21.333s-25.6 34.133-25.6 55.467 8.533 42.667 21.333 59.733c17.067 17.067 34.133 25.6 59.733 25.6 21.333 0 42.667-8.533 59.733-21.333s25.6-34.133 25.6-59.733c0-21.333-8.533-42.667-25.6-55.467s-34.133-25.6-55.467-25.6z" />
<glyph unicode="&#xe92e;" glyph-name="twitter" d="M955.733 729.6c-25.6-38.4-59.733-68.267-102.4-93.867v-25.6c0-51.2 0-98.133-12.8-149.333s-34.133-98.133-59.733-140.8c-29.867-46.933-64-85.333-102.4-119.467-42.667-34.133-89.6-64-145.067-85.333s-119.467-29.867-183.467-29.867c-102.4 0-196.267 25.6-285.867 81.067 12.8 0 29.867 0 42.667 0 85.333 0 162.133 25.6 230.4 76.8-38.4 0-76.8 12.8-106.667 38.4-34.133 25.6-55.467 55.467-64 89.6 12.8 0 25.6 0 34.133 0 17.067 0 34.133 0 46.933 4.267-42.667 8.533-85.333 29.867-110.933 64-29.867 34.133-46.933 72.533-46.933 115.2v0c42.667-12.8 59.733-21.333 89.6-21.333-25.6 17.067-42.667 38.4-55.467 64s-21.333 55.467-21.333 89.6c0 34.133 8.533 64 25.6 93.867 46.933-55.467 102.4-102.4 166.4-136.533 68.267-34.133 136.533-51.2 213.333-55.467-4.267 12.8-4.267 29.867-4.267 42.667 0 51.2 17.067 93.867 55.467 128 34.133 34.133 81.067 55.467 132.267 55.467s98.133-21.333 132.267-59.733c42.667 8.533 81.067 21.333 119.467 46.933-12.8-42.667-42.667-76.8-81.067-102.4 29.867 4.267 59.733 12.8 93.867 29.867v0z" />
<glyph unicode="&#xe92f;" glyph-name="unordered_list" d="M298.667 746.667h640v-85.333h-640v85.333zM298.667 405.333v85.333h640v-85.333h-640zM298.667 149.333v85.333h640v-85.333h-640zM149.333 256c17.067 0 34.133-4.267 46.933-17.067s17.067-25.6 17.067-46.933-4.267-34.133-17.067-46.933c-12.8-12.8-29.867-17.067-46.933-17.067s-34.133 4.267-46.933 17.067-17.067 25.6-17.067 46.933 4.267 34.133 17.067 46.933 29.867 17.067 46.933 17.067zM149.333 768c17.067 0 34.133-4.267 46.933-17.067s17.067-25.6 17.067-46.933-4.267-34.133-17.067-46.933c-12.8-12.8-29.867-17.067-46.933-17.067s-34.133 4.267-46.933 17.067c-12.8 12.8-17.067 25.6-17.067 46.933s4.267 34.133 17.067 46.933c12.8 12.8 29.867 17.067 46.933 17.067zM149.333 512c17.067 0 34.133-4.267 46.933-17.067s17.067-25.6 17.067-46.933-4.267-34.133-17.067-46.933c-12.8-12.8-29.867-17.067-46.933-17.067s-34.133 4.267-46.933 17.067-17.067 25.6-17.067 46.933 4.267 34.133 17.067 46.933c12.8 12.8 29.867 17.067 46.933 17.067z" />
<glyph unicode="&#xe930;" glyph-name="upload" d="M213.333 149.333h597.333v-85.333h-597.333v85.333zM384 234.667v298.667h-170.667l298.667 298.667 298.667-298.667h-170.667v-298.667h-256z" />
<glyph unicode="&#xe931;" glyph-name="warning" d="M554.667 362.667v170.667h-85.333v-170.667h85.333zM554.667 192v85.333h-85.333v-85.333h85.333zM42.667 21.333l469.333 853.333 469.333-853.333c0 0-938.667 0-938.667 0z" />
<glyph unicode="&#xe932;" glyph-name="wechat" d="M328.533 627.2c0 12.8-4.267 21.333-8.533 29.867-8.533 8.533-17.067 8.533-25.6 8.533-12.8 0-21.333-4.267-29.867-8.533-8.533-8.533-12.8-17.067-12.8-29.867s4.267-21.333 12.8-25.6c8.533-8.533 21.333-8.533 29.867-8.533 12.8 0 21.333 4.267 25.6 8.533 4.267 8.533 8.533 17.067 8.533 25.6zM635.733 418.133c0 8.533-4.267 12.8-8.533 21.333s-17.067 8.533-25.6 8.533c-8.533 0-12.8-4.267-21.333-8.533-4.267-4.267-8.533-12.8-8.533-21.333s4.267-12.8 8.533-21.333c4.267-4.267 12.8-8.533 21.333-8.533 12.8 0 21.333 4.267 25.6 8.533s8.533 12.8 8.533 21.333zM537.6 627.2c0 12.8-4.267 21.333-8.533 29.867-8.533 8.533-17.067 8.533-25.6 8.533-12.8 0-21.333-4.267-29.867-8.533-8.533-8.533-12.8-17.067-12.8-29.867s4.267-21.333 12.8-25.6 21.333-8.533 29.867-8.533c12.8 0 21.333 4.267 25.6 8.533 4.267 8.533 8.533 17.067 8.533 25.6zM802.133 418.133c0 8.533-4.267 12.8-8.533 21.333-8.533 4.267-17.067 8.533-25.6 8.533s-12.8-4.267-21.333-8.533c-4.267-4.267-8.533-12.8-8.533-21.333s4.267-12.8 8.533-21.333c4.267-4.267 12.8-8.533 21.333-8.533 12.8 0 21.333 4.267 25.6 8.533s8.533 12.8 8.533 21.333zM691.2 584.533c-8.533 0-17.067 0-29.867 0-46.933 0-89.6-8.533-128-29.867s-68.267-51.2-93.867-85.333c-21.333-38.4-34.133-76.8-34.133-119.467 0-21.333 4.267-42.667 8.533-64-8.533 0-17.067 0-29.867 0-8.533 0-12.8 0-21.333 0s-12.8 0-21.333 0c-8.533 0-12.8 4.267-17.067 4.267s-12.8 4.267-21.333 4.267c-12.8 4.267-17.067 4.267-21.333 4.267l-102.4-51.2 29.867 89.6c-81.067 55.467-119.467 123.733-119.467 204.8 0 46.933 12.8 89.6 42.667 128 25.6 38.4 64 68.267 110.933 93.867 46.933 21.333 98.133 34.133 149.333 34.133s93.867-8.533 136.533-25.6c42.667-17.067 81.067-42.667 110.933-76.8 25.6-34.133 42.667-72.533 51.2-110.933v0zM938.667 349.867c0-34.133-8.533-64-29.867-93.867-17.067-29.867-42.667-55.467-76.8-81.067l21.333-76.8-81.067 42.667c-42.667-8.533-72.533-17.067-89.6-17.067-46.933 0-89.6 8.533-128 29.867s-72.533 46.933-93.867 76.8c-21.333 34.133-34.133 68.267-34.133 110.933s12.8 76.8 34.133 110.933c21.333 34.133 51.2 59.733 93.867 81.067 38.4 21.333 81.067 29.867 128 29.867s85.333-8.533 128-29.867c38.4-21.333 72.533-46.933 93.867-81.067 21.333-25.6 34.133-64 34.133-102.4v0z" />
<glyph unicode="&#xe933;" glyph-name="wrench" d="M921.6 192l-384 328.533c8.533 17.067 17.067 34.133 21.333 55.467 4.267 17.067 8.533 38.4 8.533 59.733 0 34.133-4.267 64-17.067 93.867s-29.867 55.467-51.2 76.8c-21.333 21.333-46.933 38.4-76.8 51.2s-59.733 17.067-93.867 17.067c-12.8 0-25.6 0-34.133-4.267s-21.333-4.267-34.133-8.533l140.8-140.8c8.533-8.533 12.8-21.333 12.8-38.4s-4.267-25.6-12.8-38.4l-85.333-85.333c-8.533-8.533-21.333-12.8-38.4-12.8s-29.867 4.267-38.4 12.8l-140.8 140.8c-4.267-12.8-4.267-21.333-8.533-34.133s-4.267-25.6-4.267-34.133c0-34.133 4.267-64 17.067-93.867s29.867-55.467 51.2-76.8 46.933-38.4 76.8-51.2c29.867-12.8 59.733-17.067 93.867-17.067 21.333 0 42.667 4.267 59.733 8.533s38.4 12.8 51.2 21.333l328.533-384c8.533-12.8 21.333-17.067 34.133-17.067s25.6 4.267 38.4 17.067l85.333 85.333c8.533 8.533 17.067 21.333 12.8 38.4 4.267 8.533-4.267 21.333-12.8 29.867v0z" />
</font>
</defs>
</svg>
