<?xml version="1.0" standalone="no"?>
<!DOCTYPE svg PUBLIC "-//W3C//DTD SVG 1.1//EN" "http://www.w3.org/Graphics/SVG/1.1/DTD/svg11.dtd" >
<svg xmlns="http://www.w3.org/2000/svg">
<metadata>Generated by IcoMoon</metadata>
<defs>
<font id="icomoon" horiz-adv-x="1024">
<font-face units-per-em="1024" ascent="960" descent="-64" />
<missing-glyph horiz-adv-x="1024" />
<glyph unicode="&#x20;" horiz-adv-x="0" d="" />
<glyph unicode="&#xe200;" glyph-name="bold" d="M561 228q31 0 50 21 20 21 20 49 0 29-20 50t-50 21h-165v-141h165zM396 650v-140h141q29 0 49 20 21 21 21 50t-21 49q-21 21-49 21h-141zM660 450q101-46 101-161 1-75-49-126-50-52-125-52h-332v658h295q79 0 133-55t54-134-77-130z" />
<glyph unicode="&#xe201;" glyph-name="italic" d="M415 770h377v-141h-132l-159-376h104v-141h-377v141h132l159 376h-104v141z" />
<glyph unicode="&#xe202;" glyph-name="quote" d="M607 184l92 190h-141v282h282v-282l-93-190h-140zM230 184l95 190h-141v282h282v-282l-95-190h-141z" />
<glyph unicode="&#xe203;" glyph-name="insert--link" d="M726 641q88 0 150-63t62-151-62-151-150-63h-172v82h172q54 0 93 39t39 93-39 93-93 39h-172v82h172zM342 385v84h340v-84h-340zM166 427q0-54 39-93t93-39h172v-82h-172q-88 0-150 63t-62 151 62 151 150 63h172v-82h-172q-54 0-93-39t-39-93z" />
<glyph unicode="&#xe204;" glyph-name="insert--image" d="M362 363l-148-192h596l-192 256-148-192zM896 129q0-34-26-60t-60-26h-596q-34 0-60 26t-26 60v596q0 34 26 60t60 26h596q34 0 60-26t26-60v-596z" />
<glyph unicode="&#xe205;" glyph-name="unordered_list" d="M309 767h598v-84h-598v84zM309 427v84h598v-84h-598zM309 171v84h598v-84h-598zM181 277q26 0 45-19t19-45-19-45-45-19-45 19-19 45 19 45 45 19zM181 789q26 0 45-18t19-46-19-46-45-18-45 18-19 46 19 46 45 18zM181 533q26 0 45-18t19-46-19-46-45-18-45 18-19 46 19 46 45 18z" />
<glyph unicode="&#xe206;" glyph-name="ordered_list" d="M317 428v84h598v-84h-598zM317 172v84h598v-84h-598zM317 768h598v-84h-598v84zM105 512v44h128v-40l-78-88h78v-44h-128v40l76 88h-76zM147 640v128h-42v44h84v-172h-42zM105 256v44h128v-172h-128v44h84v20h-42v44h42v20h-84z" />
<glyph unicode="&#xe207;" glyph-name="preview" d="M511 597q52 0 90-38t38-90-38-90-90-38-90 38-38 90 38 90 90 38zM511 255q88 0 151 63t63 151-63 151-151 63-151-63-63-151 63-151 151-63zM511 789q158 0 286-88t184-232q-56-144-184-232t-286-88-286 88-184 232q56 144 184 232t286 88z" />
<glyph unicode="&#xe208;" glyph-name="help" d="M512 683q70 0 120-50t50-120q0-54-64-111t-64-103h-84q0 46 20 79t44 48 44 37 20 50q0 34-26 59t-60 25-60-25-26-59h-84q0 70 50 120t120 50zM512 85q140 0 241 101t101 241-101 241-241 101-241-101-101-241 101-241 241-101zM512 853q176 0 301-125t125-301-125-301-301-125-301 125-125 301 125 301 301 125zM470 171v86h84v-86h-84z" />
<glyph unicode="&#xe209;" glyph-name="formula" d="M768 771v-128h-298l212-214-212-214h298v-128h-512v86l278 256-278 256v86h512z" />
<glyph unicode="&#xe220;" glyph-name="twitter" d="M962 688q-38-56-92-96v-24q0-74-22-148t-66-142-104-120q-62-53-148-84t-184-31q-154 0-284 83 20-2 44-2 128 0 230 78-60 2-108 37-48 36-66 91 20-2 36-2 24 0 48 6-64 13-106 64-42 50-42 117v2q40-21 84-23-38 25-60 66-22 40-22 88 0 50 24 93 68-85 168-137 100-51 214-56-6 21-6 42 0 76 54 130t132 54q80 0 134-58 64 12 118 45-22-66-82-102 54 6 106 29z" />
<glyph unicode="&#xe221;" glyph-name="wechat" d="M317 558q0 18-11 30-11 11-29 10-18 0-33-10-15-12-14-30 0-17 14-28 15-11 33-11t29 11q11 10 11 28zM643 336q0 12-11 22t-29 10q-12 0-21-10-10-10-10-22t10-22 21-10q18 0 29 9 11 10 11 23zM540 558q0 18-11 30-11 11-29 10-19 0-33-10-15-12-15-30 0-17 15-28t33-11 29 11q11 10 11 28zM818 336q0 12-11 22-12 10-29 10-12 0-21-10-10-10-10-22t10-22 21-10q17 0 29 9 11 10 11 23zM702 510q-14 2-31 2-74 0-137-33-62-34-97-92-36-58-36-127 0-34 10-66-15-1-30-1-12 0-22 1-11 0-24 2t-20 3q-6 1-23 5-18 4-23 4l-110-55 31 95q-127 89-127 215 0 74 43 137 42 62 116 98 73 35 159 35 78 0 146-28 69-29 115-81 46-50 60-114zM961 264q0-51-30-98t-81-85l24-79-87 47q-66-16-96-16-74 0-136 32-63 31-98 83-36 53-36 116t36 116q35 53 98 84 62 31 136 31 71 0 133-31 63-31 100-85 37-53 37-115z" />
<glyph unicode="&#xe222;" glyph-name="qq" d="M207 478q-3 9-4 25 0 9 5 24 5 14 12 23-1 10 4 25 4 15 11 21 0 68 45 140 45 73 106 103 67 32 158 32 65 0 129-27 24-10 45-23 20-14 34-27 15-15 27-34t21-35q8-17 15-42 8-24 13-44 4-20 10-48l1-2q26-40 26-73 0-7-4-19-4-13-4-19l1-2q1-1 1-2 1-1 1-2 38-55 59-104t21-102q0-21-9-49-10-27-27-28-4 0-10 4-5 3-9 8t-9 13-8 13-7 13q-3 8-4 8-1 1-2 1l-3-2q-28-75-64-109 9-10 30-19 20-9 34-20 13-11 18-32-1-2-2-7-2-6-4-9-32-48-147-48-26 0-54 5-28 4-48 10-20 5-51 14-7 3-11 4-7 2-22 2-16 1-20 0-20-21-62-31-42-9-82-10-17 0-34 1-16 0-45 5-29 3-50 9-20 7-36 20-16 14-16 31 0 20 5 29t20 24q6 1 20 6t24 6q2 0 7 1 1 1 1 2l-1 1q-24 5-53 51t-36 77l-1 1q-3 0-6-9-9-20-27-37-18-16-38-18-3 0-4 3-1 2-2 2-11 26-11 49 0 134 123 227z" />
<glyph unicode="&#xe223;" glyph-name="google_plus" d="M353 469v-95h158q-5-31-40-76t-118-45q-36 0-67 14t-54.5 37.5-37 55.5-13.5 69 13.5 69 37 55.5 54.5 37.5 67 14q40 0 67.5-14t43.5-29l75 73q-37 34-83 53t-103 19q-58 0-108-21.5t-88-59.5-60-88.5-22-108.5 22-108.5 60-88.5 88-59.5 108-21.5q60 0 109.5 20t84.5 56.5 54 86 19 109.5q0 14-1 24.5t-4 21.5h-262zM949 477h-82v82h-82v-82h-82v-82h82v-82h82v82h82v82z" />
<glyph unicode="&#xe224;" glyph-name="facebook" d="M867 874h-710q-34 0-58-24t-24-58v-710q0-34 24-58t58-24h355v383h-109v109h109v55q0 67 48 115t116 48h109v-109h-109q-22 0-38.5-16t-16.5-38v-55h164l-27-109h-137v-383h246q34 0 58 24t24 58v710q0 34-24 58t-58 24z" />
<glyph unicode="&#xe225;" glyph-name="github" d="M512 875q-90 0-170-34t-139.5-93.5-93.5-139-34-170.5q0-72 22-137.5t62-120 95-94.5 120-62q16-3 23 4.5t7 16.5v31l-1 50q-90-20-118.5 16l-28.5 36q-15 38-32 51l-17 13q-30 20-13 23l17 3q32-3 49-24l17-21q29-50 69-47t58 11q3 20 11 35t18 23q-37 4-73 15t-64 35-45.5 64-17.5 102q0 36 12 65.5t33 52.5q-3 8-8 39t12 76l29-1q29-1 92-43 26 7 53.5 10.5t55.5 3.5 56-3.5 53-10.5q63 42 92 43l29 1q18-45 12.5-76t-8.5-39q21-23 33-52.5t12-65.5q0-63-17.5-102.5t-46-63.5-64-34.5-72.5-15.5q12-9 21-29.5t9-50.5q0-44-0.5-76.5t-0.5-43.5q0-9 7-16.5t23-4.5q65 21 120 62t95 95 62 120 22 137q0 90-34 170t-93.5 139.5-139.5 93.5-170 34z" />
<glyph unicode="&#xe226;" glyph-name="linkedin" d="M867 874h-710q-34 0-58-24t-24-58v-710q0-34 24-58t58-24h710q34 0 58 24t24 58v710q0 34-24 58t-58 24zM403 164h-110v383h110v-383zM348 602q-23 0-38.5 15.5t-16.5 38.5q0 23 16 38.5t39 15.5 39-15.5 16-38.5-16-38.5-39-15.5zM785 164h-109v219q0 23-16 38.5t-39 15.5-38.5-15.5-15.5-38.5v-219h-110v383h110v-68q17 23 41.5 45.5t53.5 22.5q51 0 87-40.5t36-96.5v-246z" />
<glyph unicode="&#xe227;" glyph-name="mail" d="M854 597v86l-342-214-342 214v-86l342-212zM854 769q34 0 59-26t25-60v-512q0-34-25-60t-59-26h-684q-34 0-59 26t-25 60v512q0 34 25 60t59 26h684z" />
<glyph unicode="&#xe228;" glyph-name="link" d="M450.5 320q-8.5 0-16.5 3.5t-15 9.5q-30 31-45.5 69.5t-15.5 78.5 15.5 78.5 45.5 69.5l164 163q30 29 68 45t79 16q42 0 80-16t68-45q30-31 45.5-69t15.5-78-15.5-78.5-45.5-69.5l-75-74q-13-14-31.5-14t-31.5 14q-13 13-13 31t13 31l75 75q35 35 35 84.5t-35 84.5q-17 17-39 26t-46 9-45.5-9-38.5-26l-164-164q-35-35-35-84.5t35-84.5q13-13 13-31t-13-32q-7-6-15-9.5t-16.5-3.5zM293.5 0q-41.5 0-79.5 15.5t-68 44.5q-30 31-45.5 69.5t-15.5 78.5 15.5 78.5 45.5 68.5l75 75q13 14 31.5 13.5t31.5-13.5 13-31.5-13-31.5l-75-75q-35-35-35-84.5t35-84.5q17-17 39-26t46-8q24 0 45.5 8.5t38.5 25.5l164 164q35 35 35 84.5t-35 84.5q-13 13-13 31.5t13 31.5 31 13 32-13q30-31 45.5-69t15.5-78-15.5-78.5-45.5-69.5l-164-164q-30-29-68-44.5t-79.5-15.5z" />
<glyph unicode="&#xe230;" glyph-name="hourglass" d="M512 449l170 170v150h-340v-150zM682 235l-170 170-170-170v-150h340v150zM256 853h512v-256l-170-170 170-170v-256h-512v256l170 170-170 170v256z" />
<glyph unicode="&#xe231;" glyph-name="schedule" d="M534 641v-224l192-114-32-54-224 136v256h64zM512 85q140 0 241 101t101 241-101 241-241 101-241-101-101-241 101-241 241-101zM512 853q176 0 301-125t125-301-125-301-301-125-301 125-125 301 125 301 301 125z" />
<glyph unicode="&#xe232;" glyph-name="check" d="M375 249l452 452 60-60-512-512-238 238 60 60z" />
<glyph unicode="&#xe233;" glyph-name="close" d="M810 665l-238-238 238-238-60-60-238 238-238-238-60 60 238 238-238 238 60 60 238-238 238 238z" />
<glyph unicode="&#xe234;" glyph-name="chevron_left" d="M670 623l-196-196 196-196-60-60-256 256 256 256z" />
<glyph unicode="&#xe235;" glyph-name="chevron_right" d="M414 683l256-256-256-256-60 60 196 196-196 196z" />
<glyph unicode="&#xe236;" glyph-name="expand_less" d="M512 597l256-256-60-60-196 196-196-196-60 60z" />
<glyph unicode="&#xe237;" glyph-name="expand_more" d="M708 573l60-60-256-256-256 256 60 60 196-196z" />
<glyph unicode="&#xe240;" glyph-name="enlarge" d="M949 875h-355l136-136-163-164 82-82 163 164 137-137v355zM949 1v355l-137-136-163 164-82-82 163-164-136-137h355zM75 1h355l-136 137 163 164-82 82-163-164-137 136v-355zM75 875v-355l137 137 163-164 82 82-163 164 136 136h-355z" />
<glyph unicode="&#xe241;" glyph-name="shrink" d="M567 492h355l-137 136 164 164-82 82-164-164-136 137v-355zM567 383v-355l136 136 164-164 82 82-164 164 137 137h-355zM457 383h-355l137-137-164-164 82-82 164 164 136-136v355zM457 492v355l-136-137-164 164-82-82 164-164-137-136h355z" />
<glyph unicode="&#xe242;" glyph-name="send" d="M891 756q-5-2-124.5-44t-261-92-260.5-92-125-44q-9-3-10-9.5t10-11.5q7-3 33.5-13t56-22 53-21.5l23.5-9.5 98-39 74 54q74 54 163.5 119.5t165 121 77.5 57.5q4 3 8.5-1.5t0.5-7.5q-2-2-56-60.5t-118-127.5-116.5-126.5l-73.5-80.5 27-13 32-17.5q32-17.5 71.5-38.5t74-40 39.5-22q9-4 19.5-0.5t13.5 15.5q2 7 21.5 91.5t42.5 184.5 42.5 183.5 21.5 87.5q3 11-4 17t-19 2zM383 121q0-8 4-10t10 4q4 3 24.5 21t42.5 38.5 40 36.5l18 16-139 72v-178z" />
<glyph unicode="&#xe243;" glyph-name="statistics" d="M504 383v382q-79 0-148.5-30t-121.5-82-82-121.5-30-148.5 30-149 82-122 121.5-82 148.5-30 149 30 122 82 82 121.5 30 149.5q0 46-10.5 89t-29.5 81zM902 663q-24 47-59.5 86t-79.5 66.5-95.5 43-108.5 15.5v-382z" />
<glyph unicode="&#xe244;" glyph-name="bubble--outline" d="M512 711q-35 0-68.5-5.5t-66.5-16.5q-30-10-56.5-24.5t-48.5-32.5q-43-35-65.5-77.5t-22.5-88.5q0-26 7.5-51t20.5-48q15-25 37-47t48-39q20-13 32-32.5t16-42.5q2-8 2-15.5t1-15.5q4 3 9 7.5t10 10.5q15 15 35 23t42 8h6.5l6.5-1q14-2 27.5-2.5t27.5-0.5q35 0 68.5 5.5t66.5 16.5q30 10 56.5 24.5t48.5 32.5q43 35 65.5 78t22.5 89-23 88.5-65 77.5q-22 18-48.5 32.5t-56.5 24.5q-32 11-66 16.5t-69 5.5zM512 820q90 0 170-27.5t139.5-75.5 93.5-113 34-138-34-138-93.5-113.5-139.5-76-170-27.5q-17 0-34 1t-34 3q-35-35-73.5-57t-78-34-80.5-16.5-82-6.5v23q44 22 76.5 59.5t32.5 81.5q0 6-0.5 12.5t-1.5 12.5q-38 24-67.5 54.5t-50.5 65.5-32.5 74.5-11.5 81.5q0 73 34 138t93.5 113 139.5 75.5 170 27.5z" />
<glyph unicode="&#xe245;" glyph-name="bubble" d="M512 821q90 0 170-28t139.5-76 93.5-113 34-138-34-138-93.5-113.5-139.5-76-170-27.5q-17 0-34 1t-34 3q-35-35-73.5-57t-78-34-80.5-16.5-82-6.5v23q44 22 76.5 59.5t32.5 81.5q0 6-0.5 12.5t-1.5 12.5q-38 24-67.5 54.5t-50.5 65.5-32.5 74.5-11.5 81.5q0 73 34 138t93.5 113 139.5 76 170 28z" />
<glyph unicode="&#xe246;" glyph-name="wrench" d="M931 176l-393 337q14 26 21.5 55t7.5 60q0 51-19.5 96t-52.5 78.5-78 52.5-96 19q-19 0-37-2.5t-35-7.5l143-143q15-15 15-38t-15-38l-87-87q-15-15-38.5-15t-38.5 15l-143 142q-5-17-7.5-35t-2.5-37q0-51 19-95.5t52.5-78 78.5-52.5 96-19q32 0 60.5 7.5t54.5 21.5l337-394q15-17 36.5-17.5t37.5 15.5l87 86q16 16 15 37.5t-18 36.5z" />
<glyph unicode="&#xe247;" glyph-name="edit" d="M884 639l-78-78-160 160 78 78q12 12 30 12t30-12l100-100q12-12 12-30t-12-30zM128 203l472 472 160-160-472-472h-160v160z" />
<glyph unicode="&#xe248;" glyph-name="delete" d="M811 769v-86h-596v86h148l44 42h212l44-42h148zM257 129v512h512v-512q0-34-26-60t-60-26h-340q-34 0-60 26t-26 60z" />
<glyph unicode="&#xe249;" glyph-name="flag" d="M591 683h240v-426h-300l-16 84h-240v-298h-84v726h384z" />
<glyph unicode="&#xe24a;" glyph-name="reply" d="M426 555q208-30 321-159t149-311q-154 218-470 218v-174l-298 298 298 298v-170z" />
<glyph unicode="&#xe24b;" glyph-name="favourite" d="M512 29l-62 56q-106 96-154 142t-107 114-81 123-22 113q0 98 67 166t167 68q116 0 192-90 76 90 192 90 100 0 167-68t67-166q0-78-52-162t-113-146-199-186z" />
<glyph unicode="&#xe24c;" glyph-name="star--outline" d="M949 520l-302 44-135 274-135-274-302-44 219-213-52-300 270 141 270-141-52 300zM512 217l-190-101 36 212-155 151 213 30 96 194 96-194 213-30-155-151 36-212z" />
<glyph unicode="&#xe24d;" glyph-name="star" d="M949 520l-302 44-135 274-135-274-302-44 219-213-52-300 270 141 270-141-52 300z" />
<glyph unicode="&#xe24e;" glyph-name="play" d="M512 85q140 0 241 101t101 241-101 241-241 101-241-101-101-241 101-241 241-101zM512 853q176 0 301-125t125-301-125-301-301-125-301 125-125 301 125 301 301 125zM426 235v384l256-192z" />
<glyph unicode="&#xe24f;" glyph-name="debug" d="M598 427v86h-172v-86h172zM598 257v84h-172v-84h172zM854 597v-84h-90q4-28 4-44v-42h86v-86h-86v-42q0-14-4-42h90v-86h-120q-34-58-93-93t-129-35-129 35-93 93h-120v86h90q-4 28-4 42v42h-86v86h86v42q0 16 4 44h-90v84h120q30 50 78 84l-70 70 60 60 94-92q30 6 60 6t60-6l94 92 60-60-70-70q48-34 78-84h120z" />
<glyph unicode="&#xe250;" glyph-name="search" d="M417 341q80 0 136 56t56 136-56 136-136 56-136-56-56-136 56-136 136-56zM673 341l212-212-64-64-212 212v34l-12 12q-76-66-180-66-116 0-197 80t-81 196 81 197 197 81 196-81 80-197q0-104-66-180l12-12h34z" />
<glyph unicode="&#xe251;" glyph-name="download" d="M214 171h596v-86h-596v86zM810 555l-298-298-298 298h170v256h256v-256h170z" />
<glyph unicode="&#xe252;" glyph-name="upload" d="M214 171h596v-86h-596v86zM384 257v256h-170l298 298 298-298h-170v-256h-256z" />
<glyph unicode="&#xe253;" glyph-name="warning" d="M554 341v172h-84v-172h84zM554 171v86h-84v-86h84zM42 43l470 810 470-810h-940z" />
<glyph unicode="&#xe254;" glyph-name="block" d="M512 85q140 0 241 101t101 241q0 120-72 210l-480-480q90-72 210-72zM170 427q0-120 72-210l480 480q-90 72-210 72-140 0-241-101t-101-241zM512 853q176 0 301-125t125-301-125-301-301-125-301 125-125 301 125 301 301 125z" />
<glyph unicode="&#xe255;" glyph-name="settings" d="M512 277q62 0 106 44t44 106-44 106-106 44-106-44-44-106 44-106 106-44zM830 385l90-70q14-10 4-28l-86-148q-8-14-26-8l-106 42q-42-30-72-42l-16-112q-4-18-20-18h-172q-16 0-20 18l-16 112q-38 16-72 42l-106-42q-18-6-26 8l-86 148q-10 18 4 28l90 70q-2 14-2 42t2 42l-90 70q-14 10-4 28l86 148q8 14 26 8l106-42q42 30 72 42l16 112q4 18 20 18h172q16 0 20-18l16-112q38-16 72-42l106 42q18 6 26-8l86-148q10-18-4-28l-90-70q2-14 2-42t-2-42z" />
<glyph unicode="&#xe256;" glyph-name="message" d="M768 597v86h-512v-86h512zM768 469v86h-512v-86h512zM768 341v86h-512v-86h512zM854 853q34 0 59-25t25-59v-512q0-34-25-60t-59-26h-598l-170-170v768q0 34 25 59t59 25h684z" />
<glyph unicode="&#xe25c;" glyph-name="global" d="M512 875q-90 0-170-34.5t-139.5-94-93.5-139-34-170.5q0-90 34-170t93.5-139 139.5-93.5 170-34.5 170 34.5 139.5 93.5 93.5 139 34 170-34 170-93.5 139.5-139.5 94-170 34.5zM512 55q-40 0-78 8t-73 23l199 224q3 3 5 8t2 10v82q0 11-8.5 19t-19.5 8q-36 0-71.5 16t-64 34.5-46 34.5-17.5 17q-4 3-9 5.5t-10 2.5h-109q-11 0-19.5-8.5t-8.5-19.5v-164q0-8 4.5-14.5t11.5-9.5l94-47v-161q-38 26-68 60t-51.5 74.5-33 86-11.5 93.5q0 44 9 85.5t27 78.5h100q5 0 10.5 2t9.5 6l109 109q3 4 5.5 9.5t2.5 10.5v65q26 8 53.5 12.5t55.5 4.5q45 0 87.5-10t79.5-29l-5-5-5-4q-23-23-35.5-53.5t-12.5-62.5 12.5-62.5 35.5-53.5q24-23 54-35.5t62-12.5h8q5-16 9.5-45.5t6.5-70-3-91.5-20-111q0-1-0.5-2t-0.5-2q-26-27-57-48t-65.5-36-72.5-23-78-8z" />
<glyph unicode="&#xe25d;" glyph-name="tag" d="M899 864h-327q-17 0-37.5-8.5t-32.5-20.5l-406-406q-12-12-12-29t12-29l351-352q12-12 29-12t29 12l406 407q12 12 20.5 32t9.5 38v327q0 17-12.5 29t-29.5 12zM695 537q-34 0-58 23.5t-24 57.5 23.5 58 58.5 24q34 0 58-23.5t24-58.5q0-34-24-57.5t-58-23.5z" />
</font>
</defs>
</svg>
