<?xml version="1.0" standalone="no"?>
<!DOCTYPE svg PUBLIC "-//W3C//DTD SVG 1.1//EN" "http://www.w3.org/Graphics/SVG/1.1/DTD/svg11.dtd" >
<svg xmlns="http://www.w3.org/2000/svg">
<metadata>Generated by IcoMoon</metadata>
<defs>
<font id="icomoon" horiz-adv-x="1024">
<font-face units-per-em="1024" ascent="960" descent="-64" />
<missing-glyph horiz-adv-x="1024" />
<glyph unicode="&#x20;" horiz-adv-x="0" d="" />
<glyph unicode="&#xe900;" glyph-name="delete" d="M832 768v-64h-640v64h172.8l44.8 64h211.2l44.8-64h166.4zM256 128v512h512v-492.8c0-19.2-6.4-44.8-25.6-57.6s-38.4-25.6-57.6-25.6h-339.2c-19.2 0-44.8 0-57.6 12.8s-32 51.2-32 51.2v0 0z" />
<glyph unicode="&#xe901;" glyph-name="enlarge" d="M896 832h-307.2l115.2-115.2-153.6-153.6 76.8-76.8 153.6 153.6 115.2-115.2v307.2zM896 64v307.2l-115.2-115.2-153.6 153.6-76.8-76.8 153.6-153.6-115.2-115.2h307.2zM128 64h307.2l-115.2 115.2 153.6 153.6-76.8 76.8-153.6-153.6-115.2 115.2v-307.2zM128 832v-307.2l115.2 115.2 153.6-153.6 76.8 76.8-153.6 153.6 115.2 115.2h-307.2z" />
<glyph unicode="&#xe902;" glyph-name="shrink" d="M576 512h320l-128 115.2 172.8 166.4-83.2 83.2-160-172.8-115.2 128v-320zM576 384v-320l115.2 128 166.4-172.8 83.2 83.2-172.8 160 128 115.2h-320zM448 384h-320l128-115.2-172.8-166.4 83.2-83.2 160 172.8 115.2-128v320zM448 512v320l-115.2-128-166.4 172.8-83.2-83.2 172.8-160-128-115.2h320z" />
<glyph unicode="&#xe903;" glyph-name="italic" d="M448 768h320v-128h-128l-128-384h64v-128h-320v128h128l128 384h-64v128z" />
<glyph unicode="&#xe904;" glyph-name="quote" d="M640 192l64 192h-128v320h256v-320l-64-192h-128zM256 192l64 192h-128v320h256v-320l-64-192h-128z" />
<glyph unicode="&#xe905;" glyph-name="block" d="M512 106.688c93.888 0 174.912 34.112 243.2 102.4s102.4 149.312 102.4 243.2c0 81.088-25.6 149.312-72.512 209.088l-482.112-482.112c59.712-51.2 128-72.512 209.088-72.512zM170.688 448c0-81.088 25.6-149.312 72.512-209.088l482.112 482.112c-59.712 46.912-132.288 72.512-209.088 72.512-93.888 0-174.912-34.112-243.2-102.4s-102.4-149.312-102.4-243.2zM512 874.688c119.488 0 217.6-42.688 302.912-123.712s123.712-183.488 123.712-302.912c0-119.488-42.688-217.6-123.712-302.912-85.312-85.312-183.488-123.712-302.912-123.712s-217.6 42.688-302.912 123.712c-85.312 85.312-123.712 183.488-123.712 302.912s42.688 217.6 123.712 302.912 183.488 123.712 302.912 123.712z" />
<glyph unicode="&#xe906;" glyph-name="bold" d="M576 256c25.6 0 25.6 0 38.4 12.8s19.2 32 19.2 44.8c0 19.2-6.4 32-19.2 51.2-12.8 12.8-25.6 19.2-51.2 19.2h-179.2v-128c0 0 192 0 192 0zM384 665.6v-153.6h166.4c19.2 0 38.4 12.8 51.2 25.6s12.8 25.6 12.8 44.8c0 19.2-6.4 32-19.2 44.8s-32 12.8-44.8 12.8h-166.4v25.6zM665.6 467.2c64-32 102.4-83.2 102.4-160 0-51.2-19.2-96-44.8-128-32-32-76.8-57.6-121.6-57.6h-345.6v640h307.2c51.2 0 96-12.8 128-51.2s51.2-76.8 51.2-128c6.4-44.8-25.6-83.2-76.8-115.2v0 0z" />
<glyph unicode="&#xe907;" glyph-name="bubble--outline" d="M512 746.688c-21.312 0-46.912 0-68.288-4.288s-42.688-8.512-68.288-17.088c-21.312-8.512-38.4-12.8-55.488-25.6-17.088-8.512-34.112-21.312-46.912-34.112-29.888-21.312-51.2-51.2-64-76.8s-21.312-59.712-21.312-89.6c0-17.088 4.288-34.112 8.512-51.2s12.8-34.112 21.312-46.912c8.512-17.088 21.312-34.112 38.4-46.912 12.8-12.8 29.888-25.6 46.912-38.4 12.8-8.512 25.6-21.312 34.112-34.112s12.8-25.6 17.088-42.688c0-4.288 0-8.512 0-17.088 0-4.288 0-8.512 0-17.088 4.288 0 4.288 4.288 8.512 8.512s8.512 8.512 8.512 8.512c8.512 8.512 21.312 17.088 34.112 21.312s25.6 8.512 42.688 8.512h17.088c8.512 0 17.088-4.288 25.6-4.288s17.088 0 25.6 0c21.312 0 46.912 0 68.288 4.288s42.688 8.512 68.288 17.088c21.312 8.512 38.4 12.8 55.488 25.6s34.112 21.312 46.912 34.112 51.2 51.2 64 76.8c17.088 29.888 21.312 59.712 21.312 89.6s-8.512 59.712-21.312 89.6c-17.088 29.888-38.4 55.488-64 76.8-12.8 12.8-29.888 21.312-46.912 34.112s-38.4 17.088-55.488 25.6c-21.312 8.512-42.688 12.8-64 17.088s-55.488 8.512-76.8 8.512v0zM512 857.6c59.712 0 115.2-8.512 170.688-25.6s98.112-42.688 140.8-76.8c38.4-34.112 72.512-68.288 93.888-110.912s34.112-89.6 34.112-136.512c0-46.912-12.8-93.888-34.112-136.512s-55.488-81.088-93.888-115.2c-38.4-34.112-85.312-59.712-140.8-76.8-51.2-17.088-110.912-25.6-170.688-25.6-12.8 0-21.312 0-34.112 0s-21.312 0-34.112 4.288c-21.312-21.312-46.912-42.688-72.512-55.488s-51.2-25.6-76.8-34.112c-25.6-8.512-51.2-12.8-81.088-17.088-25.6-4.288-55.488-4.288-81.088-8.512v21.312c29.888 12.8 55.488 34.112 76.8 59.712s34.112 51.2 34.112 81.088c0 4.288 0 8.512 0 12.8s0 8.512 0 12.8c-25.6 17.088-46.912 34.112-68.288 55.488s-38.4 42.688-51.2 64c-12.8 21.312-25.6 46.912-34.112 72.512s-12.8 55.488-12.8 81.088c0 46.912 12.8 93.888 34.112 136.512s55.488 81.088 93.888 110.912c38.4 34.112 85.312 55.488 140.8 76.8s106.688 29.888 166.4 29.888v0z" />
<glyph unicode="&#xe908;" glyph-name="bubble" d="M512 857.6c59.712 0 115.2-8.512 170.688-29.888 55.488-17.088 98.112-42.688 140.8-76.8 38.4-34.112 72.512-68.288 93.888-110.912s34.112-89.6 34.112-136.512-12.8-93.888-34.112-136.512c-21.312-42.688-55.488-81.088-93.888-115.2s-85.312-59.712-140.8-76.8c-51.2-17.088-110.912-25.6-170.688-25.6-12.8 0-21.312 0-34.112 0s-21.312 0-34.112 4.288c-21.312-21.312-46.912-42.688-72.512-55.488s-51.2-25.6-76.8-34.112c-25.6-8.512-55.488-12.8-81.088-17.088s-38.4-4.288-81.088-8.512v21.312c42.688 12.8 55.488 34.112 76.8 59.712s34.112 51.2 34.112 81.088c0 4.288 0 8.512 0 12.8s0 8.512 0 12.8c-25.6 17.088-46.912 34.112-68.288 55.488s-38.4 42.688-51.2 64c-12.8 21.312-25.6 46.912-34.112 72.512s-12.8 55.488-12.8 81.088c0 46.912 12.8 93.888 34.112 136.512s55.488 81.088 93.888 110.912c38.4 34.112 85.312 55.488 140.8 76.8s106.688 34.112 166.4 34.112v0z" />
<glyph unicode="&#xe909;" glyph-name="check" d="M384 320l426.688 426.688 85.312-85.312-512-512-256 256 85.312 85.312 170.688-170.688z" />
<glyph unicode="&#xe90a;" glyph-name="chevron_left" d="M597.312 704l-256-256 256-256 85.312 85.312-170.688 170.688 170.688 170.688-85.312 85.312z" />
<glyph unicode="&#xe90b;" glyph-name="chevron_right" d="M426.688 704l256-256-256-256-85.312 85.312 170.688 170.688-170.688 170.688 85.312 85.312z" />
<glyph unicode="&#xe90c;" glyph-name="close" d="M853.312 704l-256-256 256-256-85.312-85.312-256 256-256-256-85.312 85.312 256 256-256 256 85.312 85.312 256-256 256 256c0 0 85.312-85.312 85.312-85.312z" />
<glyph unicode="&#xe90d;" glyph-name="debug" d="M597.312 448v85.312h-170.688v-85.312h170.688zM597.312 277.312v85.312h-170.688v-85.312h170.688zM853.312 618.688v-85.312h-89.6c4.288 0 4.288-34.112 4.288-42.688v-42.688h85.312v-85.312h-85.312v-42.688c0-8.512 0-42.688-4.288-42.688h89.6v-85.312h-119.488c-21.312-42.688-55.488-68.288-93.888-93.888-38.4-21.312-81.088-34.112-128-34.112s-89.6 12.8-128 34.112-68.288 51.2-93.888 93.888h-119.488v85.312h89.6c-4.288 0-4.288 34.112-4.288 42.688v42.688h-85.312v85.312h85.312v42.688c0 8.512 0 42.688 4.288 42.688h-89.6v85.312h119.488c21.312 42.688 46.912 59.712 76.8 85.312l-68.288 68.288 59.712 59.712 93.888-93.888c21.312 4.288 38.4 4.288 59.712 4.288s38.4 0 59.712-4.288l93.888 93.888 59.712-59.712-68.288-68.288c34.112-21.312 59.712-42.688 76.8-85.312h119.488z" />
<glyph unicode="&#xe90e;" glyph-name="download" d="M213.312 149.312h597.312v-85.312h-597.312v85.312zM810.688 533.312l-298.688-298.688-298.688 298.688h170.688v298.688h256v-298.688h170.688z" />
<glyph unicode="&#xe90f;" glyph-name="edit" d="M883.2 657.088l-76.8-76.8-157.888 157.888 76.8 76.8c8.512 8.512 17.088 12.8 29.888 12.8s21.312-4.288 29.888-12.8l98.112-98.112c8.512-8.512 12.8-17.088 12.8-29.888 0-8.512-4.288-21.312-12.8-29.888v0zM128 226.112l469.312 469.312 157.888-162.112-469.312-469.312h-162.112v162.112z" />
<glyph unicode="&#xe910;" glyph-name="expand_less" d="M256 362.688l256 256 256-256-85.312-85.312-170.688 170.688-170.688-170.688-85.312 85.312z" />
<glyph unicode="&#xe911;" glyph-name="expand_more" d="M256 533.312l256-256 256 256-85.312 85.312-170.688-170.688-170.688 170.688-85.312-85.312z" />
<glyph unicode="&#xe912;" glyph-name="facebook" d="M866.112 874.688h-708.288c-21.312 0-38.4-4.288-51.2-17.088s-17.088-29.888-17.088-51.2v-708.288c0-21.312 4.288-38.4 17.088-51.2s29.888-17.088 51.2-17.088h354.112v384h-128v85.312h128v68.288c0 42.688 17.088 72.512 46.912 106.688s72.512 38.4 115.2 38.4h93.888v-85.312h-93.888c-12.8 0-17.088-8.512-29.888-21.312-12.8-8.512-8.512-25.6-8.512-42.688v-68.288h145.088l-25.6-85.312h-119.488v-384h226.112c21.312 0 38.4 4.288 51.2 17.088s17.088 29.888 17.088 51.2v708.288c0 21.312-4.288 38.4-17.088 51.2s-21.312 21.312-46.912 21.312z" />
<glyph unicode="&#xe913;" glyph-name="favourite" d="M512 64l-64 55.488c-72.512 64-123.712 110.912-153.6 140.8-34.112 29.888-68.288 68.288-106.688 110.912s-68.288 85.312-81.088 119.488c-12.8 34.112-21.312 72.512-21.312 110.912 0 64 21.312 119.488 68.288 162.112s102.4 68.288 166.4 68.288c76.8 0 140.8-29.888 192-89.6 51.2 59.712 115.2 89.6 192 89.6 68.288 0 123.712-21.312 166.4-68.288 42.688-42.688 68.288-98.112 68.288-162.112 0-51.2-17.088-102.4-51.2-157.888s-72.512-102.4-115.2-145.088c-42.688-42.688-106.688-102.4-200.512-183.488l-59.712-51.2z" />
<glyph unicode="&#xe914;" glyph-name="flag" d="M597.312 746.688h256v-469.312h-298.688l-38.4 85.312h-260.288v-298.688h-85.312v768h384l42.688-85.312z" />
<glyph unicode="&#xe915;" glyph-name="formula" d="M768 789.312v-128h-298.688l213.312-213.312-213.312-213.312h298.688v-128h-512v85.312l256 256-256 256v85.312h512z" />
<glyph unicode="&#xe916;" glyph-name="github" d="M512 874.688c-59.712 0-115.2-12.8-170.688-34.112-51.2-21.312-98.112-55.488-140.8-93.888-38.4-38.4-72.512-85.312-93.888-140.8-21.312-51.2-34.112-110.912-34.112-170.688 0-46.912 8.512-93.888 21.312-136.512s34.112-85.312 64-119.488c25.6-38.4 59.712-68.288 93.888-93.888 38.4-25.6 76.8-46.912 119.488-64 8.512 0 17.088 0 21.312 4.288s8.512 8.512 8.512 17.088v81.088c-59.712-12.8-98.112-8.512-119.488 17.088l-29.888 34.112c-8.512 25.6-21.312 42.688-34.112 51.2l-17.088 12.8c-21.312 12.8-25.6 21.312-12.8 21.312l17.088 4.288c21.312 0 38.4-8.512 46.912-25.6l17.088-21.312c21.312-34.112 42.688-46.912 68.288-46.912s46.912 4.288 59.712 12.8c0 12.8 4.288 25.6 12.8 34.112 4.288 8.512 12.8 17.088 17.088 21.312-25.6 4.288-46.912 8.512-72.512 17.088s-46.912 17.088-64 34.112c-17.088 17.088-34.112 38.4-46.912 64s-17.088 59.712-17.088 102.4c0 25.6 4.288 46.912 12.8 64 8.512 21.312 17.088 38.4 34.112 51.2 0 4.288-4.288 17.088-8.512 38.4s0 46.912 12.8 76.8h29.888c21.312 0 51.2-17.088 93.888-42.688 17.088 4.288 34.112 8.512 55.488 8.512 17.088 4.288 38.4 4.288 55.488 4.288s38.4 0 55.488-4.288c17.088-4.288 38.4-4.288 51.2-8.512 42.688 29.888 72.512 42.688 93.888 42.688h29.888c12.8-29.888 17.088-55.488 12.8-76.8s-8.512-34.112-8.512-38.4c12.8-17.088 25.6-34.112 34.112-51.2 8.512-21.312 12.8-42.688 12.8-64 0-42.688-4.288-76.8-17.088-102.4s-25.6-46.912-46.912-64c-17.088-17.088-38.4-25.6-64-34.112s-46.912-12.8-72.512-17.088c8.512-4.288 17.088-17.088 21.312-29.888s8.512-29.888 8.512-51.2c0-29.888 0-55.488 0-76.8s0-34.112 0-42.688c0-4.288 4.288-12.8 8.512-17.088s12.8-8.512 21.312-4.288c42.688 12.8 85.312 34.112 119.488 64 38.4 25.6 68.288 59.712 93.888 93.888s46.912 76.8 64 119.488c12.8 42.688 21.312 89.6 21.312 136.512 0 59.712-12.8 115.2-34.112 170.688-21.312 51.2-55.488 98.112-93.888 140.8-38.4 38.4-85.312 72.512-140.8 93.888-55.488 25.6-110.912 38.4-170.688 38.4v0z" />
<glyph unicode="&#xe917;" glyph-name="global" d="M512 874.688c-59.712 0-115.2-12.8-166.4-34.112s-98.112-51.2-136.512-89.6-68.288-85.312-89.6-136.512c-21.312-51.2-34.112-106.688-34.112-166.4s12.8-115.2 34.112-166.4c21.312-51.2 51.2-98.112 89.6-136.512s85.312-68.288 136.512-89.6c51.2-21.312 106.688-34.112 166.4-34.112s115.2 12.8 166.4 34.112c51.2 21.312 98.112 51.2 136.512 89.6s68.288 85.312 89.6 136.512c21.312 51.2 34.112 106.688 34.112 166.4s-12.8 115.2-34.112 166.4c-21.312 51.2-51.2 98.112-89.6 136.512s-85.312 68.288-136.512 89.6c-51.2 21.312-106.688 34.112-166.4 34.112zM512 76.8c-25.6 0-51.2 4.288-76.8 8.512s-46.912 12.8-72.512 21.312l196.288 217.6c0 0 4.288 4.288 4.288 8.512s0 8.512 0 8.512v81.088c0 8.512-4.288 12.8-8.512 17.088s-12.8 8.512-17.088 8.512c-21.312 0-46.912 4.288-68.288 17.088-21.312 8.512-42.688 21.312-64 34.112-17.088 12.8-34.112 21.312-46.912 34.112s-17.088 17.088-17.088 17.088c-4.288 0-4.288 4.288-8.512 4.288s-8.512 4.288-8.512 4.288h-106.688c-8.512 0-12.8-4.288-17.088-8.512s-8.512-12.8-8.512-17.088v-162.112c0-4.288 0-8.512 4.288-12.8s8.512-8.512 12.8-8.512l93.888-46.912v-157.888c-25.6 17.088-46.912 38.4-68.288 59.712s-38.4 46.912-51.2 72.512c-12.8 25.6-25.6 55.488-34.112 85.312s-12.8 59.712-12.8 89.6c0 29.888 4.288 55.488 8.512 85.312s12.8 51.2 25.6 76.8h98.112c4.288 0 8.512 0 8.512 0s8.512 4.288 8.512 4.288l106.688 106.688c0 4.288 4.288 4.288 4.288 8.512s4.288 8.512 4.288 8.512v64c17.088 4.288 34.112 8.512 51.2 12.8s34.112 4.288 55.488 4.288c29.888 0 59.712-4.288 85.312-8.512s55.488-17.088 76.8-29.888l-8.512-8.512c-17.088-17.088-25.6-34.112-34.112-51.2-8.512-21.312-12.8-38.4-12.8-59.712s4.288-42.688 12.8-59.712c8.512-21.312 21.312-38.4 34.112-51.2 17.088-17.088 34.112-25.6 51.2-34.112 21.312-8.512 38.4-12.8 59.712-12.8h8.512c4.288-8.512 4.288-25.6 8.512-42.688s4.288-42.688 4.288-68.288c0-25.6 0-55.488-4.288-89.6s-8.512-68.288-21.312-106.688c0 0 0 0 0 0s0 0 0 0c-17.088-17.088-34.112-34.112-55.488-46.912s-42.688-25.6-64-34.112c-21.312-8.512-46.912-17.088-72.512-21.312-12.8-21.312-38.4-21.312-64-21.312v0z" />
<glyph unicode="&#xe918;" glyph-name="google_plus" d="M341.312 486.4v-81.088h170.688c-4.288-42.688-17.088-51.2-38.4-81.088s-64-46.912-119.488-46.912c-25.6 0-46.912 4.288-68.288 12.8s-38.4 21.312-55.488 38.4c-17.088 17.088-29.888 34.112-38.4 55.488s-12.8 42.688-12.8 68.288c0 25.6 4.288 46.912 12.8 68.288s21.312 38.4 38.4 55.488 34.112 29.888 55.488 38.4c21.312 8.512 42.688 12.8 68.288 12.8s51.2-4.288 68.288-12.8c17.088-8.512 34.112-17.088 42.688-29.888l76.8 72.512c-25.6 21.312-51.2 38.4-81.088 51.2s-64 17.088-102.4 17.088c-38.4 0-76.8-8.512-106.688-21.312s-64-34.112-89.6-59.712-46.912-55.488-59.712-89.6c-12.8-34.112-21.312-68.288-21.312-106.688s8.512-76.8 21.312-106.688c12.8-34.112 34.112-64 59.712-89.6s55.488-46.912 89.6-59.712 68.288-21.312 106.688-21.312c38.4 0 76.8 8.512 110.912 21.312s59.712 34.112 85.312 55.488c21.312 25.6 42.688 51.2 55.488 85.312s17.088 68.288 17.088 110.912c0 8.512 0 17.088 0 25.6s0 21.312-4.288 21.312l-281.6-4.288zM938.688 490.688h-85.312v85.312h-85.312v-85.312h-85.312v-85.312h85.312v-85.312h85.312v85.312h85.312v85.312z" />
<glyph unicode="&#xe919;" glyph-name="help" d="M512 704c46.912 0 85.312-17.088 119.488-51.2s51.2-72.512 51.2-119.488c0-34.112-21.312-72.512-64-110.912s-64-59.712-64-102.4h-85.312c0 42.688 8.512 55.488 21.312 81.088 12.8 21.312 29.888 38.4 42.688 46.912 17.088 8.512 29.888 21.312 42.688 38.4 12.8 12.8 21.312 29.888 21.312 51.2s-8.512 42.688-25.6 59.712c-17.088 17.088-38.4 25.6-59.712 25.6s-42.688-8.512-59.712-25.6c-17.088-17.088-25.6-17.088-25.6-59.712h-85.312c0 42.688 17.088 85.312 51.2 119.488 34.112 29.888 72.512 46.912 119.488 46.912zM512 106.688c93.888 0 174.912 34.112 238.912 102.4 68.288 68.288 102.4 149.312 102.4 238.912 0 93.888-34.112 174.912-102.4 238.912s-149.312 102.4-238.912 102.4-174.912-34.112-238.912-102.4-102.4-149.312-102.4-238.912c0-93.888 34.112-174.912 102.4-238.912 64-68.288 145.088-102.4 238.912-102.4zM512 874.688c119.488 0 217.6-42.688 302.912-123.712s123.712-183.488 123.712-302.912c0-119.488-42.688-217.6-123.712-302.912s-183.488-123.712-302.912-123.712-217.6 42.688-302.912 123.712-123.712 183.488-123.712 302.912 42.688 217.6 123.712 302.912 183.488 123.712 302.912 123.712zM469.312 192v85.312h85.312v-85.312h-85.312z" />
<glyph unicode="&#xe91a;" glyph-name="hourglass" d="M512 469.312l170.688 170.688v149.312h-341.312v-149.312l170.688-170.688zM682.688 234.688l-170.688 179.2-170.688-157.888v-149.312h341.312v128zM256 874.688h512v-256l-170.688-170.688 170.688-170.688v-256h-512v256l170.688 170.688-170.688 170.688v256z" />
<glyph unicode="&#xe91b;" glyph-name="insert--image" d="M362.688 384l-149.312-192h597.312l-192 256-149.312-192-106.688 128zM896 149.312c0-21.312-8.512-42.688-25.6-59.712s-38.4-25.6-59.712-25.6h-597.312c-21.312 0-42.688 8.512-59.712 25.6s-25.6 38.4-25.6 59.712v597.312c0 21.312 8.512 42.688 25.6 59.712s38.4 25.6 59.712 25.6h597.312c21.312 0 42.688-8.512 59.712-25.6s25.6-38.4 25.6-59.712v-597.312z" />
<glyph unicode="&#xe91c;" glyph-name="insert--link" d="M725.312 661.312c42.688 0 106.688-21.312 149.312-64s64-93.888 64-149.312c0-59.712-21.312-106.688-64-149.312s-89.6-64-149.312-64h-170.688v85.312h170.688c34.112 0 68.288 12.8 93.888 38.4s34.112 51.2 34.112 89.6c0 34.112-8.512 64-34.112 89.6s-55.488 38.4-93.888 38.4h-170.688v85.312h170.688zM341.312 405.312v85.312h341.312v-85.312h-341.312zM170.688 448c0-34.112 8.512-64 34.112-89.6s55.488-38.4 93.888-38.4h170.688v-85.312h-170.688c-59.712 0-106.688 21.312-149.312 64s-64 93.888-64 149.312c0 59.712 21.312 106.688 64 149.312s89.6 64 149.312 64h170.688v-85.312h-170.688c-34.112 0-68.288-12.8-93.888-38.4s-34.112-55.488-34.112-89.6z" />
<glyph unicode="&#xe91d;" glyph-name="link" d="M452.288 341.312c-4.288 0-12.8 0-17.088 4.288s-8.512 4.288-17.088 8.512c-21.312 21.312-34.112 42.688-46.912 68.288-8.512 25.6-17.088 51.2-17.088 76.8s4.288 51.2 17.088 76.8c8.512 25.6 25.6 46.912 46.912 68.288l162.112 162.112c21.312 21.312 42.688 34.112 68.288 46.912 25.6 8.512 51.2 17.088 81.088 17.088s55.488-4.288 81.088-17.088c25.6-8.512 46.912-25.6 68.288-46.912s34.112-42.688 46.912-68.288c8.512-25.6 17.088-51.2 17.088-76.8s-4.288-51.2-17.088-76.8c-8.512-25.6-25.6-46.912-46.912-68.288l-76.8-72.512c-8.512-8.512-17.088-12.8-29.888-12.8s-21.312 4.288-29.888 12.8c-8.512 8.512-12.8 17.088-12.8 29.888s4.288 21.312 12.8 29.888l76.8 76.8c21.312 21.312 34.112 51.2 34.112 85.312s-12.8 59.712-34.112 85.312c-12.8 12.8-25.6 21.312-38.4 25.6s-29.888 8.512-46.912 8.512c-17.088 0-29.888-4.288-46.912-8.512-12.8-4.288-25.6-12.8-38.4-25.6l-162.112-162.112c-21.312-21.312-34.112-51.2-34.112-85.312s12.8-59.712 34.112-85.312c8.512-8.512 12.8-17.088 12.8-29.888s-4.288-21.312-12.8-34.112c-4.288-4.288-8.512-8.512-17.088-8.512-8.512-4.288-12.8-4.288-17.088-4.288v0zM294.4 21.312c-25.6 0-55.488 4.288-81.088 17.088-25.6 8.512-46.912 25.6-68.288 42.688-21.312 21.312-34.112 42.688-46.912 68.288s-17.088 51.2-17.088 76.8c0 25.6 4.288 51.2 17.088 76.8s25.6 46.912 46.912 68.288l76.8 76.8c8.512 8.512 17.088 12.8 29.888 12.8s21.312-4.288 29.888-12.8 12.8-17.088 12.8-29.888-4.288-21.312-12.8-29.888l-76.8-76.8c-21.312-21.312-34.112-51.2-34.112-85.312s12.8-59.712 34.112-85.312c12.8-12.8 25.6-21.312 38.4-25.6s29.888-8.512 46.912-8.512c17.088 0 29.888 4.288 46.912 8.512s25.6 12.8 38.4 25.6l162.112 162.112c21.312 21.312 34.112 51.2 34.112 85.312s-12.8 59.712-34.112 85.312c-8.512 8.512-12.8 17.088-12.8 29.888s4.288 21.312 12.8 29.888c8.512 8.512 17.088 12.8 29.888 12.8s21.312-4.288 34.112-12.8c21.312-21.312 34.112-42.688 46.912-68.288 8.512-25.6 17.088-51.2 17.088-76.8s-4.288-51.2-17.088-76.8c-8.512-25.6-25.6-46.912-46.912-68.288l-162.112-162.112c-21.312-21.312-42.688-34.112-68.288-42.688-25.6-12.8-51.2-17.088-76.8-17.088v0z" />
<glyph unicode="&#xe91e;" glyph-name="linkedin" d="M857.6 874.688h-691.2c-21.312 0-42.688-8.512-55.488-25.6s-25.6-34.112-25.6-55.488v-691.2c0-21.312 8.512-42.688 25.6-55.488s34.112-25.6 55.488-25.6h691.2c21.312 0 42.688 8.512 55.488 25.6s25.6 34.112 25.6 55.488v691.2c0 21.312-8.512 42.688-25.6 55.488s-34.112 25.6-55.488 25.6zM405.312 183.488h-106.688v371.2h106.688v-371.2zM354.112 610.112c-12.8 0-25.6 4.288-38.4 17.088-8.512 8.512-17.088 21.312-17.088 38.4 0 12.8 4.288 25.6 17.088 38.4 8.512 8.512 21.312 17.088 38.4 17.088s25.6-4.288 38.4-17.088c8.512-8.512 17.088-21.312 17.088-38.4s-4.288-25.6-17.088-38.4c-12.8-12.8-25.6-17.088-38.4-17.088v0zM776.512 183.488h-106.688v213.312c0 12.8-4.288 25.6-17.088 38.4-8.512 8.512-21.312 17.088-38.4 17.088s-25.6-4.288-38.4-17.088c-8.512-8.512-17.088-21.312-17.088-38.4v-213.312h-106.688v371.2h106.688v-68.288c12.8 12.8 25.6 29.888 38.4 42.688 17.088 12.8 34.112 21.312 51.2 21.312 34.112 0 59.712-12.8 85.312-38.4 21.312-25.6 34.112-59.712 34.112-93.888v-234.688h8.512z" />
<glyph unicode="&#xe91f;" glyph-name="mail" d="M853.312 618.688v85.312l-341.312-213.312-341.312 213.312v-85.312l341.312-213.312 341.312 213.312zM853.312 789.312c21.312 0 42.688-8.512 59.712-25.6s25.6-38.4 25.6-59.712v-512c0-21.312-8.512-42.688-25.6-59.712s-38.4-25.6-59.712-25.6h-682.688c-21.312 0-42.688 8.512-59.712 25.6s-25.6 38.4-25.6 59.712v512c0 21.312 8.512 42.688 25.6 59.712s38.4 25.6 59.712 25.6h682.688z" />
<glyph unicode="&#xe920;" glyph-name="message" d="M768 576v64h-512v-64h512zM768 448v64h-512v-64h512zM768 320v64h-512v-64h512zM819.2 768c19.2 0 38.4-6.4 51.2-25.6 12.8-12.8 25.6-32 25.6-51.2v-396.8c0-19.2-6.4-51.2-25.6-64-12.8-12.8-32-38.4-51.2-38.4h-537.6l-153.6-128v627.2c0 19.2 6.4 38.4 25.6 51.2 12.8 12.8 32 25.6 51.2 25.6h614.4z" />
<glyph unicode="&#xe921;" glyph-name="ordered_list" d="M320 384v128h640v-128h-640zM320 128v128h640v-128h-640zM320 768h640v-128h-640v128zM83.2 492.8v44.8h128v-38.4l-76.8-89.6h76.8v-44.8h-128v38.4l76.8 89.6c0 0-76.8 0-76.8 0zM128 620.8v128h-44.8v44.8h83.2v-172.8h-38.4zM83.2 236.8v44.8h128v-172.8h-128v44.8h83.2v19.2h-44.8v44.8h44.8v19.2h-83.2z" />
<glyph unicode="&#xe922;" glyph-name="play" d="M512 106.688c93.888 0 174.912 34.112 238.912 102.4 68.288 68.288 102.4 149.312 102.4 238.912 0 93.888-34.112 174.912-102.4 238.912s-149.312 102.4-238.912 102.4-174.912-34.112-238.912-102.4-102.4-149.312-102.4-238.912c0-93.888 34.112-174.912 102.4-238.912 64-68.288 145.088-102.4 238.912-102.4zM512 874.688c119.488 0 217.6-42.688 302.912-123.712s123.712-183.488 123.712-302.912c0-119.488-42.688-217.6-123.712-302.912s-183.488-123.712-302.912-123.712-217.6 42.688-302.912 123.712-123.712 183.488-123.712 302.912 42.688 217.6 123.712 302.912 183.488 123.712 302.912 123.712zM426.688 256v384l256-192-256-192z" />
<glyph unicode="&#xe923;" glyph-name="preview" d="M512 576c34.112 0 64-12.8 89.6-38.4s38.4-55.488 38.4-89.6c0-34.112-12.8-64-38.4-89.6s-55.488-38.4-89.6-38.4-64 12.8-89.6 38.4-38.4 55.488-38.4 89.6c0 34.112 12.8 64 38.4 89.6s55.488 38.4 89.6 38.4zM512 234.688c59.712 0 110.912 21.312 149.312 64 42.688 42.688 64 93.888 64 149.312s-21.312 110.912-64 149.312c-42.688 42.688-93.888 64-149.312 64s-110.912-21.312-149.312-64c-42.688-42.688-64-93.888-64-149.312s21.312-110.912 64-149.312c38.4-42.688 89.6-64 149.312-64zM512 768c106.688 0 200.512-29.888 285.888-89.6s145.088-136.512 183.488-230.4c-38.4-93.888-98.112-174.912-183.488-230.4s-179.2-89.6-285.888-89.6c-106.688 0-200.512 29.888-285.888 89.6s-145.088 136.512-183.488 230.4c38.4 93.888 98.112 174.912 183.488 230.4s179.2 89.6 285.888 89.6z" />
<glyph unicode="&#xe924;" glyph-name="qq" d="M209.088 490.688c0 4.288-4.288 12.8-4.288 25.6 0 4.288 0 12.8 4.288 21.312s8.512 17.088 12.8 21.312c0 8.512 0 12.8 4.288 25.6 4.288 8.512 4.288 17.088 12.8 21.312 0 42.688 17.088 89.6 46.912 136.512s64 81.088 106.688 102.4c42.688 21.312 98.112 29.888 157.888 29.888 42.688 0 85.312-8.512 128-25.6 17.088-8.512 29.888-12.8 46.912-21.312 12.8-8.512 25.6-17.088 34.112-25.6s17.088-21.312 25.6-34.112 17.088-25.6 21.312-34.112c4.288-12.8 8.512-25.6 17.088-42.688 4.288-17.088 8.512-29.888 12.8-42.688s4.288-29.888 8.512-46.912v0c17.088-25.6 25.6-51.2 25.6-72.512 0-4.288 0-12.8-4.288-17.088-4.288-8.512-4.288-12.8-4.288-17.088v0c0 0 0 0 0 0s0 0 0 0c25.6-34.112 46.912-68.288 59.712-102.4 12.8-29.888 21.312-64 21.312-98.112 0-12.8-4.288-29.888-8.512-46.912-8.512-17.088-17.088-25.6-25.6-25.6-4.288 0-4.288 0-8.512 4.288-4.288 0-4.288 4.288-8.512 8.512s-4.288 8.512-8.512 12.8-4.288 8.512-8.512 12.8c0 4.288-4.288 8.512-8.512 12.8 0 4.288-4.288 8.512-4.288 8.512s0 0 0 0h-4.288c-17.088-46.912-38.4-85.312-64-106.688 4.288-8.512 17.088-12.8 29.888-17.088s25.6-12.8 34.112-21.312c8.512-8.512 12.8-17.088 17.088-29.888 0 0 0-4.288 0-8.512s-4.288-8.512-4.288-8.512c-21.312-29.888-68.288-46.912-145.088-46.912-17.088 0-34.112 0-55.488 4.288-17.088 4.288-34.112 4.288-46.912 8.512s-29.888 8.512-51.2 12.8c-4.288 0-8.512 4.288-12.8 4.288s-12.8 0-21.312 0c-8.512 0-17.088 0-21.312 0-12.8-12.8-34.112-25.6-64-29.888s-55.488-8.512-81.088-8.512c-12.8 0-21.312 0-34.112 0-8.512 0-25.6 0-46.912 4.288-21.312 0-34.112 4.288-51.2 8.512-12.8 4.288-25.6 12.8-34.112 21.312s-17.088 17.088-17.088 29.888c0 12.8 0 21.312 4.288 29.888 4.288 4.288 8.512 12.8 21.312 21.312 4.288 0 12.8 4.288 21.312 4.288 8.512 4.288 17.088 4.288 25.6 4.288 0 0 4.288 0 8.512 0 0 0 0 0 0 0v0c-17.088 4.288-34.112 21.312-51.2 51.2s-29.888 55.488-34.112 76.8v0c0 0-4.288-4.288-4.288-8.512-4.288-12.8-17.088-25.6-25.6-34.112-12.8-8.512-25.6-17.088-38.4-17.088 0 0-4.288 0-4.288 4.288 0 0 0 0 0 0-8.512 17.088-12.8 34.112-12.8 46.912-12.8 81.088 25.6 153.6 110.912 213.312v0z" />
<glyph unicode="&#xe925;" glyph-name="reply" d="M426.688 597.312c128-21.312 247.488-72.512 320-157.888 76.8-85.312 123.712-187.712 149.312-311.488-102.4 145.088-256 217.6-469.312 217.6v-174.912l-298.688 298.688 298.688 298.688v-170.688z" />
<glyph unicode="&#xe926;" glyph-name="schedule" d="M533.312 661.312v-226.112l192-115.2-34.112-55.488-221.888 136.512v256h64zM512 106.688c93.888 0 174.912 34.112 238.912 102.4 68.288 68.288 102.4 149.312 102.4 238.912 0 93.888-34.112 174.912-102.4 238.912s-149.312 102.4-238.912 102.4-174.912-34.112-238.912-102.4-102.4-149.312-102.4-238.912c0-93.888 34.112-174.912 102.4-238.912 64-68.288 145.088-102.4 238.912-102.4zM512 874.688c119.488 0 217.6-42.688 302.912-123.712s123.712-183.488 123.712-302.912c0-119.488-42.688-217.6-123.712-302.912s-183.488-123.712-302.912-123.712-217.6 42.688-302.912 123.712-123.712 183.488-123.712 302.912 42.688 217.6 123.712 302.912 183.488 123.712 302.912 123.712z" />
<glyph unicode="&#xe927;" glyph-name="search" d="M418.112 349.888c51.2 0 98.112 17.088 136.512 55.488s55.488 81.088 55.488 136.512c0 51.2-17.088 98.112-55.488 136.512s-81.088 55.488-136.512 55.488-98.112-17.088-136.512-55.488-55.488-81.088-55.488-136.512c0-51.2 17.088-98.112 55.488-136.512s81.088-55.488 136.512-55.488zM674.112 362.688l213.312-217.6-68.288-68.288-217.6 209.088v34.112l-4.288 12.8c-51.2-42.688-106.688-64-179.2-64-76.8 0-140.8 25.6-196.288 81.088s-81.088 119.488-81.088 196.288c0 76.8 25.6 145.088 81.088 196.288s119.488 81.088 196.288 81.088c76.8 0 140.8-25.6 196.288-81.088s81.088-119.488 81.088-196.288c0-68.288-21.312-123.712-64-174.912l12.8-4.288h29.888z" />
<glyph unicode="&#xe928;" glyph-name="security" d="M512 874.688l341.312-170.688v-217.6c0-209.088-145.088-418.112-341.312-465.088-196.288 46.912-341.312 256-341.312 465.088v217.6l341.312 170.688zM512 448v-337.088c140.8 42.688 234.688 166.4 256 337.088 0 0-256 0-256 0zM512 448v341.312l-256-123.712v-217.6h256z" />
<glyph unicode="&#xe929;" glyph-name="send" d="M938.688 789.312c0 0-59.712-17.088-145.088-46.912s-183.488-64-281.6-98.112c-98.112-34.112-196.288-68.288-277.312-98.112-85.312-29.888-128-46.912-132.288-46.912s-12.8-4.288-12.8-8.512c0-4.288 4.288-8.512 8.512-12.8 4.288 0 17.088-8.512 34.112-12.8 17.088-8.512 38.4-12.8 59.712-21.312s38.4-17.088 55.488-21.312l25.6-8.512 102.4-42.688 76.8 55.488c51.2 38.4 110.912 81.088 174.912 128s119.488 89.6 174.912 128c51.2 38.4 81.088 59.712 81.088 59.712 4.288 0 4.288 0 8.512 0s4.288-4.288 0-8.512c0 0-21.312-21.312-59.712-64s-81.088-85.312-123.712-136.512c-46.912-46.912-85.312-93.888-123.712-132.288l-76.8-85.312 29.888-12.8 34.112-17.088c21.312-12.8 46.912-25.6 76.8-42.688 29.888-12.8 55.488-29.888 76.8-42.688 25.6-12.8 38.4-21.312 42.688-21.312 4.288-4.288 12.8-4.288 21.312 0s12.8 8.512 12.8 17.088c0 4.288 8.512 38.4 21.312 98.112s29.888 123.712 46.912 196.288 29.888 136.512 46.912 192c12.8 59.712 21.312 89.6 21.312 93.888 0 8.512 12.8 12.8 8.512 17.088-8.512-4.288-8.512-4.288-8.512-4.288v0zM384 115.2c0-4.288-4.288-8.512 0-8.512s4.288 0 8.512 4.288c4.288 0 8.512 8.512 25.6 21.312 12.8 12.8 29.888 25.6 42.688 42.688 17.088 12.8 29.888 25.6 42.688 38.4l21.312 17.088-140.8 76.8v-192z" />
<glyph unicode="&#xe92a;" glyph-name="settings" d="M512 298.688c42.688 0 76.8 12.8 106.688 42.688s42.688 64 42.688 106.688c0 42.688-12.8 76.8-42.688 106.688s-64 42.688-106.688 42.688-76.8-12.8-106.688-42.688c-29.888-29.888-42.688-64-42.688-106.688s12.8-76.8 42.688-106.688c29.888-29.888 64-42.688 106.688-42.688zM832 405.312l89.6-68.288c8.512-8.512 12.8-17.088 4.288-29.888l-85.312-149.312c-4.288-8.512-12.8-12.8-25.6-8.512l-106.688 42.688c-29.888-21.312-51.2-34.112-72.512-42.688l-17.088-110.912c-4.288-12.8-8.512-17.088-21.312-17.088h-170.688c-8.512 0-17.088 4.288-21.312 17.088l-17.088 110.912c-25.6 8.512-51.2 25.6-72.512 42.688l-106.688-42.688c-12.8-4.288-21.312 0-25.6 8.512l-85.312 149.312c-8.512 12.8-4.288 21.312 4.288 29.888l89.6 68.288c0 8.512 0 21.312 0 42.688s0 34.112 0 42.688l-89.6 68.288c-8.512 8.512-12.8 17.088-4.288 29.888l85.312 149.312c4.288 8.512 12.8 12.8 25.6 8.512l106.688-42.688c29.888 21.312 51.2 34.112 72.512 42.688l17.088 110.912c4.288 12.8 8.512 17.088 21.312 17.088h170.688c8.512 0 17.088-4.288 21.312-17.088l17.088-110.912c25.6-8.512 51.2-25.6 72.512-42.688l106.688 42.688c12.8 4.288 21.312 0 25.6-8.512l85.312-149.312c8.512-12.8 4.288-21.312-4.288-29.888l-89.6-68.288c0-8.512 0-21.312 0-42.688s0-34.112 0-42.688z" />
<glyph unicode="&#xe92b;" glyph-name="star--outline" d="M947.2 546.112l-302.912 42.688-136.512 273.088-136.512-273.088-302.912-42.688 217.6-213.312-51.2-298.688 268.8 140.8 268.8-140.8-51.2 298.688 226.112 213.312zM512 243.2l-192-102.4 34.112 213.312-153.6 149.312 213.312 29.888 93.888 192 93.888-192 213.312-29.888-153.6-149.312 34.112-213.312-183.488 102.4z" />
<glyph unicode="&#xe92c;" glyph-name="star" d="M947.2 546.112l-302.912 42.688-136.512 273.088-136.512-273.088-302.912-42.688 217.6-213.312-51.2-298.688 268.8 140.8 268.8-140.8-51.2 298.688 226.112 213.312z" />
<glyph unicode="&#xe92d;" glyph-name="statistics" d="M512 396.8v371.2c-42.688 0-106.688-8.512-149.312-29.888s-85.312-46.912-119.488-81.088c-34.112-34.112-64-72.512-81.088-119.488-21.312-46.912-29.888-93.888-29.888-145.088s8.512-98.112 29.888-145.088c21.312-46.912 46.912-85.312 81.088-119.488s72.512-59.712 119.488-81.088c46.912-21.312 93.888-29.888 145.088-29.888s102.4 8.512 145.088 29.888c46.912 21.312 85.312 46.912 119.488 81.088s59.712 72.512 81.088 119.488c21.312 46.912 29.888 93.888 29.888 145.088 0 29.888-4.288 59.712-8.512 85.312-8.512 29.888-12.8 55.488-25.6 81.088l-337.088-162.112zM891.712 669.888c-17.088 29.888-34.112 59.712-59.712 85.312s-46.912 46.912-76.8 64c-29.888 17.088-59.712 29.888-93.888 42.688-34.112 8.512-64 17.088-106.688 17.088v-371.2l337.088 162.112z" />
<glyph unicode="&#xe92e;" glyph-name="tag" d="M900.288 874.688h-324.288c-12.8 0-25.6 0-38.4-8.512s-25.6-12.8-34.112-21.312l-405.312-405.312c-8.512-8.512-12.8-17.088-12.8-29.888s4.288-21.312 12.8-29.888l349.888-349.888c8.512-8.512 17.088-12.8 29.888-12.8s21.312 4.288 29.888 12.8l405.312 405.312c8.512 8.512 12.8 17.088 21.312 29.888 4.288 12.8 8.512 25.6 8.512 38.4v324.288c0 12.8-4.288 21.312-12.8 29.888-12.8 12.8-21.312 17.088-29.888 17.088v0zM695.488 550.4c-21.312 0-42.688 8.512-59.712 21.312s-25.6 34.112-25.6 55.488 8.512 42.688 21.312 59.712c17.088 17.088 34.112 25.6 59.712 25.6 21.312 0 42.688-8.512 59.712-21.312s25.6-34.112 25.6-59.712c0-21.312-8.512-42.688-25.6-55.488s-34.112-25.6-55.488-25.6z" />
<glyph unicode="&#xe92f;" glyph-name="twitter" d="M955.712 729.6c-25.6-38.4-59.712-68.288-102.4-93.888v-25.6c0-51.2 0-98.112-12.8-149.312s-34.112-98.112-59.712-140.8c-29.888-46.912-64-85.312-102.4-119.488-42.688-34.112-89.6-64-145.088-85.312s-119.488-29.888-183.488-29.888c-102.4 0-196.288 25.6-285.888 81.088 12.8 0 29.888 0 42.688 0 85.312 0 162.112 25.6 230.4 76.8-38.4 0-76.8 12.8-106.688 38.4-34.112 25.6-55.488 55.488-64 89.6 12.8 0 25.6 0 34.112 0 17.088 0 34.112 0 46.912 4.288-42.688 8.512-85.312 29.888-110.912 64-29.888 34.112-46.912 72.512-46.912 115.2v0c42.688-12.8 59.712-21.312 89.6-21.312-25.6 17.088-42.688 38.4-55.488 64s-21.312 55.488-21.312 89.6c0 34.112 8.512 64 25.6 93.888 46.912-55.488 102.4-102.4 166.4-136.512 68.288-34.112 136.512-51.2 213.312-55.488-4.288 12.8-4.288 29.888-4.288 42.688 0 51.2 17.088 93.888 55.488 128 34.112 34.112 81.088 55.488 132.288 55.488s98.112-21.312 132.288-59.712c42.688 8.512 81.088 21.312 119.488 46.912-12.8-42.688-42.688-76.8-81.088-102.4 29.888 4.288 59.712 12.8 93.888 29.888v0z" />
<glyph unicode="&#xe930;" glyph-name="unordered_list" d="M320 768h640v-128h-640v128zM320 384v128h640v-128h-640zM320 128v128h640v-128h-640zM147.2 256c19.2 0 32-6.4 44.8-19.2s19.2-25.6 19.2-44.8-6.4-32-19.2-44.8c-12.8-12.8-32-19.2-44.8-19.2-19.2 0-32 6.4-44.8 19.2s-19.2 25.6-19.2 44.8 6.4 32 19.2 44.8c12.8 12.8 32 19.2 44.8 19.2zM147.2 768c19.2 0 32-6.4 44.8-19.2s19.2-25.6 19.2-44.8c0-19.2-6.4-32-19.2-44.8s-32-19.2-44.8-19.2c-19.2 0-32 6.4-44.8 19.2s-19.2 25.6-19.2 44.8c0 19.2 6.4 32 19.2 44.8s32 19.2 44.8 19.2zM147.2 512c19.2 0 32-6.4 44.8-19.2s19.2-25.6 19.2-44.8-6.4-32-19.2-44.8c-12.8-12.8-32-19.2-44.8-19.2-19.2 0-32 6.4-44.8 19.2s-19.2 25.6-19.2 44.8 6.4 32 19.2 44.8c12.8 12.8 32 19.2 44.8 19.2z" />
<glyph unicode="&#xe931;" glyph-name="upload" d="M213.312 149.312h597.312v-85.312h-597.312v85.312zM384 234.688v298.688h-170.688l298.688 298.688 298.688-298.688h-170.688v-298.688h-256z" />
<glyph unicode="&#xe932;" glyph-name="user" d="M512 361.984c113.984 0 342.016-56 342.016-169.984v-86.016h-683.968v86.016c0 113.984 228.032 169.984 342.016 169.984zM512 448c-94.016 0-169.984 75.968-169.984 169.984s75.968 171.968 169.984 171.968 169.984-78.016 169.984-171.968-75.968-169.984-169.984-169.984z" />
<glyph unicode="&#xe933;" glyph-name="warning" d="M554.688 362.688v170.688h-85.312v-170.688h85.312zM554.688 192v85.312h-85.312v-85.312h85.312zM42.688 21.312l469.312 853.312 469.312-853.312c0 0-938.688 0-938.688 0z" />
<glyph unicode="&#xe934;" glyph-name="wechat" d="M328.512 627.2c0 12.8-4.288 21.312-8.512 29.888-8.512 8.512-17.088 8.512-25.6 8.512-12.8 0-21.312-4.288-29.888-8.512-8.512-8.512-12.8-17.088-12.8-29.888s4.288-21.312 12.8-25.6c8.512-8.512 21.312-8.512 29.888-8.512 12.8 0 21.312 4.288 25.6 8.512 4.288 8.512 8.512 17.088 8.512 25.6zM635.712 418.112c0 8.512-4.288 12.8-8.512 21.312s-17.088 8.512-25.6 8.512c-8.512 0-12.8-4.288-21.312-8.512-4.288-4.288-8.512-12.8-8.512-21.312s4.288-12.8 8.512-21.312c4.288-4.288 12.8-8.512 21.312-8.512 12.8 0 21.312 4.288 25.6 8.512s8.512 12.8 8.512 21.312zM537.6 627.2c0 12.8-4.288 21.312-8.512 29.888-8.512 8.512-17.088 8.512-25.6 8.512-12.8 0-21.312-4.288-29.888-8.512-8.512-8.512-12.8-17.088-12.8-29.888s4.288-21.312 12.8-25.6 21.312-8.512 29.888-8.512c12.8 0 21.312 4.288 25.6 8.512 4.288 8.512 8.512 17.088 8.512 25.6zM802.112 418.112c0 8.512-4.288 12.8-8.512 21.312-8.512 4.288-17.088 8.512-25.6 8.512s-12.8-4.288-21.312-8.512c-4.288-4.288-8.512-12.8-8.512-21.312s4.288-12.8 8.512-21.312c4.288-4.288 12.8-8.512 21.312-8.512 12.8 0 21.312 4.288 25.6 8.512s8.512 12.8 8.512 21.312zM691.2 584.512c-8.512 0-17.088 0-29.888 0-46.912 0-89.6-8.512-128-29.888s-68.288-51.2-93.888-85.312c-21.312-38.4-34.112-76.8-34.112-119.488 0-21.312 4.288-42.688 8.512-64-8.512 0-17.088 0-29.888 0-8.512 0-12.8 0-21.312 0s-12.8 0-21.312 0c-8.512 0-12.8 4.288-17.088 4.288s-12.8 4.288-21.312 4.288c-12.8 4.288-17.088 4.288-21.312 4.288l-102.4-51.2 29.888 89.6c-81.088 55.488-119.488 123.712-119.488 204.8 0 46.912 12.8 89.6 42.688 128 25.6 38.4 64 68.288 110.912 93.888 46.912 21.312 98.112 34.112 149.312 34.112s93.888-8.512 136.512-25.6c42.688-17.088 81.088-42.688 110.912-76.8 25.6-34.112 42.688-72.512 51.2-110.912v0zM938.688 349.888c0-34.112-8.512-64-29.888-93.888-17.088-29.888-42.688-55.488-76.8-81.088l21.312-76.8-81.088 42.688c-42.688-8.512-72.512-17.088-89.6-17.088-46.912 0-89.6 8.512-128 29.888s-72.512 46.912-93.888 76.8c-21.312 34.112-34.112 68.288-34.112 110.912s12.8 76.8 34.112 110.912c21.312 34.112 51.2 59.712 93.888 81.088 38.4 21.312 81.088 29.888 128 29.888s85.312-8.512 128-29.888c38.4-21.312 72.512-46.912 93.888-81.088 21.312-25.6 34.112-64 34.112-102.4v0z" />
<glyph unicode="&#xe935;" glyph-name="wrench" d="M921.6 192l-384 328.512c8.512 17.088 17.088 34.112 21.312 55.488 4.288 17.088 8.512 38.4 8.512 59.712 0 34.112-4.288 64-17.088 93.888s-29.888 55.488-51.2 76.8c-21.312 21.312-46.912 38.4-76.8 51.2s-59.712 17.088-93.888 17.088c-12.8 0-25.6 0-34.112-4.288s-21.312-4.288-34.112-8.512l140.8-140.8c8.512-8.512 12.8-21.312 12.8-38.4s-4.288-25.6-12.8-38.4l-85.312-85.312c-8.512-8.512-21.312-12.8-38.4-12.8s-29.888 4.288-38.4 12.8l-140.8 140.8c-4.288-12.8-4.288-21.312-8.512-34.112s-4.288-25.6-4.288-34.112c0-34.112 4.288-64 17.088-93.888s29.888-55.488 51.2-76.8 46.912-38.4 76.8-51.2c29.888-12.8 59.712-17.088 93.888-17.088 21.312 0 42.688 4.288 59.712 8.512s38.4 12.8 51.2 21.312l328.512-384c8.512-12.8 21.312-17.088 34.112-17.088s25.6 4.288 38.4 17.088l85.312 85.312c8.512 8.512 17.088 21.312 12.8 38.4 4.288 8.512-4.288 21.312-12.8 29.888v0z" />
<glyph unicode="&#xe936;" glyph-name="add" d="M809.984 406.016h-256v-256h-84.011v256h-256v84.011h256v256h84.011v-256h256v-84.011z" />
<glyph unicode="&#xe937;" glyph-name="platform--android" d="M896 576c-35.2 0-64-28.8-64-64v-256c0-35.2 28.8-64 64-64s64 28.8 64 64v256c0 35.2-28.8 64-64 64zM128 576c-35.2 0-64-28.8-64-64v-256c0-35.2 28.8-64 64-64s64 28.8 64 64v256c0 35.2-28.8 64-64 64zM224 224c0-53.024 42.976-96 96-96v0-128c0-35.2 28.8-64 64-64s64 28.8 64 64v128h128v-128c0-35.2 28.8-64 64-64s64 28.8 64 64v128c53.024 0 96 42.976 96 96v352h-576v-352zM798.208 640c-9.728 87.872-59.008 163.808-129.632 209.632l32.032 64.032c7.904 15.808 1.504 35.040-14.304 42.944s-35.040 1.504-42.944-14.304l-32.128-64.288-8.352 3.328c-28.576 9.504-59.136 14.656-90.88 14.656s-62.304-5.152-90.88-14.656l-8.352-3.328-32.128 64.288c-7.904 15.808-27.136 22.208-42.944 14.304s-22.208-27.136-14.304-42.944l32.032-64.032c-70.624-45.856-119.904-121.76-129.632-209.632v-32h574.208v32h-1.792zM416 704c-17.664 0-32 14.336-32 32s14.304 31.968 31.936 32c0.032 0 0.064 0 0.096 0s0.032 0 0.064 0c17.632-0.032 31.936-14.336 31.936-32s-14.336-32-32-32zM608 704c-17.664 0-32 14.336-32 32s14.272 31.968 31.936 32c0 0 0.032 0 0.064 0s0.064 0 0.096 0c17.632-0.032 31.936-14.336 31.936-32s-14.336-32-32-32z" />
<glyph unicode="&#xe938;" glyph-name="platform--chromeos" d="M258.272 513.472l-146.528 253.792c93.824 117.472 238.24 192.736 400.256 192.736 187.424 0 351.296-100.736 440.544-251.008h-417.76c-7.52 0.64-15.104 0.992-22.752 0.992-121.888 0-224.576-83.648-253.728-196.544zM695.296 635.008h293.472c22.752-57.92 35.232-120.992 35.232-187.008 0-280.832-226.112-508.8-506.176-511.936l209.408 362.688c29.472 42.368 46.784 93.824 46.784 149.248 0 73.184-30.176 139.424-78.688 187.008zM326.016 448c0 102.56 83.424 186.016 186.016 186.016s186.016-83.424 186.016-186.016c0-102.56-83.456-186.016-186.016-186.016s-186.016 83.456-186.016 186.016zM582.176 195.552l-146.592-253.888c-246.528 36.896-435.616 249.504-435.616 506.304 0 91.232 23.872 176.832 65.696 251.040l209.024-362.048c41.856-89.12 132.48-150.976 237.28-150.976 24.288 0 47.84 3.328 70.176 9.568z" />
<glyph unicode="&#xe939;" glyph-name="platform--ios" d="M791.488 415.904c-1.28 129.696 105.76 191.872 110.528 194.976-60.16 88.032-153.856 100.064-187.232 101.472-79.744 8.064-155.584-46.944-196.064-46.944-40.352 0-102.816 45.76-168.96 44.544-86.912-1.28-167.072-50.528-211.808-128.384-90.304-156.704-23.136-388.832 64.896-515.936 43.008-62.208 94.304-132.064 161.632-129.568 64.832 2.592 89.376 41.952 167.744 41.952s100.416-41.952 169.056-40.672c69.76 1.312 113.984 63.392 156.704 125.792 49.376 72.16 69.728 142.048 70.912 145.632-1.536 0.704-136.064 52.224-137.408 207.136zM662.56 796.48c35.744 43.36 59.872 103.52 53.28 163.52-51.488-2.112-113.888-34.304-150.816-77.536-33.152-38.368-62.144-99.616-54.368-158.432 57.472-4.48 116.128 29.216 151.904 72.448z" />
<glyph unicode="&#xe93a;" glyph-name="platform--linux" d="M567.648 223.072c-81.952-38.112-158.144-37.728-209.344-34.016-61.056 4.416-110.144 21.12-131.744 35.744-13.312 8.992-31.392 5.536-40.384-7.776s-5.536-31.392 7.776-40.384c34.688-23.488 96.064-40.96 160.16-45.568 10.88-0.768 22.784-1.28 35.648-1.28 55.776 0 126.624 5.312 202.432 40.576 14.56 6.784 20.864 24.064 14.112 38.624s-24.064 20.864-38.656 14.112zM890.944 266.176c2.784 252.672 28.768 730.208-454.976 691.616-477.6-38.432-350.976-542.976-358.080-711.936-6.304-89.376-35.968-198.656-77.888-309.856h129.088c13.28 47.136 23.040 93.728 27.232 138.144 7.776-5.44 16.096-10.688 24.992-15.712 14.464-8.512 26.88-19.84 40.032-31.84 30.752-28.032 65.6-59.776 133.728-63.744 4.576-0.256 9.184-0.384 13.664-0.384 68.896 0 116 30.144 153.888 54.368 18.144 11.616 33.824 21.632 48.576 26.464 41.92 13.12 78.528 34.304 105.888 61.248 4.288 4.192 8.256 8.544 11.968 12.96 15.232-55.872 36.128-118.752 59.296-181.504h275.648c-66.176 102.24-134.432 202.368-133.056 330.176zM124.096 403.648c0 0 0 0.032 0 0.032-4.736 82.464 34.72 151.84 88.128 154.944s100.544-61.216 105.312-143.68c0 0 0-0.032 0-0.032 0.256-4.448 0.352-8.832 0.384-13.216-16.928-4.256-32.192-10.432-45.888-17.632-0.064 0.608-0.096 1.216-0.16 1.824 0 0 0 0.032 0 0.032-4.576 46.816-29.568 82.144-55.84 78.944s-43.872-43.744-39.296-90.56c0 0 0-0.032 0-0.032 1.984-20.416 7.872-38.624 16.032-52.448-2.048-1.6-7.776-5.824-14.4-10.656-4.96-3.648-11.008-8.064-18.304-13.44-19.872 26.080-33.504 63.584-35.936 105.888zM665.248 199.808c-1.888-43.584-58.912-84.576-111.584-101.056l-0.288-0.096c-21.888-7.104-41.44-19.616-62.112-32.832-34.72-22.24-70.656-45.216-122.528-45.216-3.392 0-6.88 0.096-10.336 0.288-47.52 2.784-69.728 23.040-97.888 48.672-14.848 13.536-30.176 27.52-49.984 39.136l-0.416 0.256c-42.72 24.096-69.216 54.080-70.912 80.192-0.832 12.992 4.928 24.224 17.184 33.408 26.624 19.968 44.48 33.024 56.288 41.664 13.12 9.6 17.056 12.48 20 15.264 2.112 1.984 4.352 4.192 6.816 6.56 24.448 23.776 65.376 63.552 128.16 63.552 38.4 0 80.896-14.784 126.176-43.904 21.312-13.888 39.872-20.288 63.392-28.384 16.16-5.568 34.464-11.904 58.976-22.4l0.384-0.16c22.88-9.408 49.888-26.56 48.672-54.944zM652.64 302.208c-4.384 2.208-8.96 4.32-13.76 6.272-22.112 9.472-39.84 15.872-54.528 20.992 8.128 15.904 13.152 35.712 13.632 57.248 0 0 0 0.032 0 0.032 1.12 52.384-25.28 94.912-59.008 94.976s-61.952-42.304-63.072-94.688c0 0 0-0.032 0-0.032-0.032-1.728-0.032-3.424-0.032-5.12-20.768 9.568-41.184 16.48-61.152 20.768-0.096 1.952-0.192 3.936-0.256 5.92 0 0 0 0.032 0 0.064-1.952 95.424 56.608 174.4 130.752 176.416s135.84-73.696 137.76-169.12c0-0.032 0-0.032 0-0.064 0.864-43.136-10.656-82.88-30.368-113.664z" />
<glyph unicode="&#xe93b;" glyph-name="platform--mac" d="M569.216 181.76c0 0.032 0 0.096 0 0.128 0-0.032 0-0.096 0-0.128zM570.592 145.472c0 0.224-0.032 0.48-0.032 0.704 0-0.224 0.032-0.48 0.032-0.704zM569.824 163.68c0 0.192 0 0.352-0.032 0.544 0-0.192 0-0.352 0.032-0.544zM960 960h-896c-35.2 0-64-28.8-64-64v-896c0-35.2 28.8-64 64-64h493.824c0.032 0 0.096 0 0.128 0s0.096 0 0.128 0h401.92c35.2 0 64 28.8 64 64v896c0 35.2-28.8 64-64 64zM192 736c0 17.664 14.336 32 32 32s32-14.336 32-32v-64c0-17.664-14.336-32-32-32s-32 14.336-32 32v64zM960 0h-375.072c-6.688 42.080-10.912 85.472-13.376 127.616 0-0.128 0-0.224 0.032-0.352-19.712-2.144-39.584-3.264-59.584-3.264-133.664 0-262.368 48.64-362.496 136.992-14.912 13.152-16.32 35.904-3.168 50.816s35.904 16.32 50.816 3.168c86.944-76.736 198.752-118.976 314.848-118.976 19.072 0 38.048 1.152 56.832 3.424-2.208 118.208 6.88 211.904 7.040 213.408 0.896 8.992-2.048 17.952-8.128 24.64s-14.688 10.528-23.712 10.528h-95.168c1.376 34.624 5.088 93.824 14.944 160.192 18.848 126.752 52 225.76 96.16 287.808h400.064v-896zM800 640c-17.664 0-32 14.336-32 32v64c0 17.664 14.336 32 32 32s32-14.336 32-32v-64c0-17.664-14.336-32-32-32zM540.48 124.768c-3.648-0.192-7.296-0.352-10.944-0.448 3.648 0.128 7.296 0.256 10.944 0.448zM512 124c4.704 0 9.376 0.064 14.048 0.192-4.672-0.128-9.344-0.192-14.048-0.192zM539.072 196.8c0.768 0.032 1.568 0.096 2.336 0.128-0.768-0.064-1.568-0.096-2.336-0.128zM525.088 196.192c1.088 0.032 2.144 0.064 3.232 0.096-1.088-0.032-2.144-0.096-3.232-0.096zM877.664 311.808c-13.152 14.912-35.904 16.32-50.816 3.168-72.64-64.128-162.656-104.128-258.016-115.584 0.416-23.264 1.28-47.488 2.752-72.16 111.968 12.224 217.792 58.624 302.912 133.76 14.912 13.152 16.32 35.904 3.168 50.816zM571.488 127.264c-4.608-0.512-9.216-0.928-13.856-1.312 4.64 0.384 9.248 0.832 13.856 1.312zM555.488 125.76c-3.904-0.32-7.808-0.576-11.744-0.8 3.904 0.224 7.84 0.48 11.744 0.8z" />
<glyph unicode="&#xe93c;" glyph-name="platform--mobile" d="M736 960h-448c-52.8 0-96-43.2-96-96v-832c0-52.8 43.2-96 96-96h448c52.8 0 96 43.2 96 96v832c0 52.8-43.2 96-96 96zM384 912h256v-32h-256v32zM512 0c-35.36 0-64 28.64-64 64s28.64 64 64 64 64-28.64 64-64-28.64-64-64-64zM768 192h-512v640h512v-640z" />
<glyph unicode="&#xe93d;" glyph-name="platform--unknown" d="M512-64c282.784 0 512 229.216 512 512s-229.216 512-512 512-512-229.216-512-512 229.216-512 512-512zM512 864c229.76 0 416-186.24 416-416s-186.24-416-416-416-416 186.24-416 416 186.24 416 416 416zM745.728 358.368l22.496-76.768-436.992-128-22.496 76.768zM256 640c0 35.36 28.64 64 64 64s64-28.64 64-64c0-35.36-28.64-64-64-64s-64 28.64-64 64zM640 640c0 35.36 28.64 64 64 64s64-28.64 64-64c0-35.36-28.64-64-64-64s-64 28.64-64 64z" />
<glyph unicode="&#xe93e;" glyph-name="platform--windows" d="M0.352 448l-0.352 312.064 384 52.16v-364.224zM448 821.504l511.872 74.496v-448h-511.872zM960 384l-0.128-448-511.872 72v376zM384 16.16l-383.68 52.608-0.032 315.232h383.712z" />
</font>
</defs>
</svg>
