<svg xmlns="http://www.w3.org/2000/svg" viewBox="0 0 200 184"><path fill="#E0E0E0" d="M199 95.9c-.7-1.8-2.1-3.6-1.9-5.3.7-7-2.8-12-7.3-16.4 7.9-14.3 7-18.9-5.6-28.3.7-6.8-2.7-11.8-8.9-14-6.8-2.6-12.9-.2-18 5.5 1.4-7.6 2.9-14.7-2.5-20.6-6-6.7-13.2-4.5-20.4-1.1-1-7.7-4.3-13.8-11.4-15.2-8.5-1.8-14.9 2.1-18.3 9.8-12.4-.9-13.7-.4-20 6.8-11.3-14.5-18.8-15-28.1-3.8-5.1 2.4-9.7 3.3-12.2 6-5.4 6-9.7 12.8-15.1 20.2-5.6-1-11.3.7-15 7.1C11.1 51.9 7 57 4.3 62.7c-1 2.1.2 6 1.5 8.5 4.3 8.9 3.6 17.9.6 26.7-1.6 4.9-3.9 9.6-5.6 14.5-3.2 9.6 3.7 18.8 13.8 18.7l9.3-.7c-8 5.5-12.2 11.4-9.2 19.7 2.6 7.7 9.3 8.5 16 9.3C39.5 171.3 46 170.2 56 164l7.2 4c2.4 10.1 6.7 14.7 13.7 14.7 8.2 0 13.1-5.4 18-11 .7.7 1.3 1 1.5 1.5 4.3 8.8 8.4 11.6 15.4 10.8 7.4-1 10.5-4.4 12.8-14 .7-3.3.4-7.2 4.5-9 2.5 2.6 4.8 5.6 7.4 7.8 5.6 4.8 14.3 5.8 20.1 2.4 6.4-3.8 7.3-9.9 6.4-16.6-.2-1.8-.4-3.5-.4-5.6l4.5 1.1c8.7 1.3 14.5-.9 18-6.9 3.4-6 2.2-11.7-4-18.8-2.6-3-5.6-5.8-9.3-9.8l12.1 1.3c11.6.7 18.9-8.7 15.1-20zm-141.1 8.6c-3.7 0-6.8-3-6.8-6.7s3-6.7 6.8-6.7c3.7 0 6.8 3 6.8 6.7s-3 6.7-6.8 6.7zM37.4 73.9c-14.3 3.8 23.2-10.7 29.9-16.7 0 0 6.5 7.2-29.9 16.7zm42 62.7s6-10.3 20.3-10.3 20.7 10.3 20.7 10.3-13.3-5.1-41 0zm58.9-35.1c-3.7 0-6.8-3-6.8-6.7s3-6.7 6.8-6.7 6.8 3 6.8 6.7-3.1 6.7-6.8 6.7zm21.3-36.8c-36.5 3.2-32.2-9.9-32.2-9.9 7.9 4.4 46.6 8.6 32.2 9.9z"/></svg>