<svg xmlns="http://www.w3.org/2000/svg" viewBox="0 0 928.6 1000"><path d="M256 493q-42-91-42-207H71v53q0 44 53 91t132 63zm601-154v-53H714q0 116-41 207 79-16 131-63t53-91zm72-71v71q0 40-24 80t-62 73-97 54-120 25q-23 30-53 53-21 19-29 40t-8 50q0 30 17 51t54 21q42 0 75 25t32 64v36q0 8-5 13t-13 5H232q-8 0-13-5t-5-13v-36q0-39 33-64t74-25q38 0 55-21t17-51q0-28-8-50t-29-40q-30-23-53-53-64-3-121-25t-96-54-63-73-23-80v-71q0-23 16-38t38-16h160v-53q0-37 27-63t63-27h321q37 0 63 27t26 63v53h161q22 0 38 16t16 38z"/></svg>