<svg xmlns="http://www.w3.org/2000/svg" viewBox="0 0 1000 1000"><path d="M500 208c-21 0-46 0-67 4s-41 9-66 17c-21 8-38 13-55 25-16 8-33 21-45 33-30 21-50 50-63 75s-21 59-21 88c0 17 5 33 9 50s12 33 20 46c9 16 21 33 38 46 12 12 29 25 46 37 12 8 25 21 33 33s13 25 17 42v33c4 0 4-4 8-8l8-8c9-8 21-17 34-21s25-8 41-8h17l25 4h25c21 0 46 0 67-4s41-9 66-17c21-8 38-12 55-25s33-21 45-33 50-50 63-75c17-29 21-59 21-88s-9-58-21-87c-17-29-38-54-63-75-12-13-29-21-45-34s-38-16-55-25c-20-8-41-12-62-16s-54-9-75-9zm0-108c58 0 113 8 167 25s96 42 137 75c38 33 71 67 92 108s33 88 33 134c0 45-12 91-33 133s-54 79-92 112c-37 34-83 59-137 75-50 17-109 25-167 25h-33s-21 0-34-4c-20 21-45 42-70 54s-50 25-75 34c-25 8-50 12-80 16-25 5-54 5-79 9v-21c29-13 54-33 75-58s34-50 34-80v-25c-25-16-46-33-67-54s-38-41-50-62c-13-21-25-46-33-71s-13-54-13-79c0-46 13-92 33-134s55-79 92-108c38-33 83-54 138-75s104-29 162-29z"/></svg>