<svg xmlns="http://www.w3.org/2000/svg" viewBox="0 0 1000 1000"><path d="M500 83c-58 0-112 13-167 34-50 20-95 54-137 91-38 38-71 84-92 138-21 50-33 108-33 166 0 46 8 92 21 134s33 83 62 116c25 38 58 67 92 92 37 25 75 46 117 63 8 0 16 0 20-4s9-9 9-17v-79c-59 12-96 8-117-17l-29-33c-9-25-21-42-34-50l-16-13c-21-12-25-21-13-21l17-4c21 0 37 8 46 25l16 21c21 33 42 46 67 46s46-4 58-13c0-12 5-25 13-33 4-8 12-17 17-21-25-4-46-8-71-17s-46-16-63-33c-16-17-33-37-45-62s-17-59-17-100c0-25 4-46 12-63 9-21 17-37 34-50 0-4-5-17-9-37s0-46 13-75h29c21 0 50 16 92 41 16-4 33-8 54-8 17-4 37-4 54-4s38 0 54 4c17 4 38 4 50 8 42-29 71-41 92-41h29c13 29 17 54 13 75s-9 33-9 37c13 17 25 33 34 50 8 21 12 42 12 63 0 41-4 75-17 100s-25 45-45 62c-17 17-38 25-63 33s-46 13-71 17c9 4 17 17 21 29s8 29 8 50v117c0 4 5 13 9 17s12 8 21 4c41-13 83-33 116-63 38-25 67-58 92-91s46-75 62-117c13-42 21-88 21-133 0-59-12-113-33-167-21-50-54-96-92-138-37-37-83-70-137-91-54-25-109-38-167-38z"/></svg>