<svg xmlns="http://www.w3.org/2000/svg" viewBox="0 0 1000 1000"><path d="M838 83H163c-21 0-42 9-55 25s-25 34-25 54v675c0 21 9 42 25 55s34 25 55 25h675c20 0 41-9 54-25s25-34 25-55V162c0-20-9-41-25-54s-34-25-54-25zM396 758H292V396h104v362zm-50-416c-13 0-25-5-38-17-8-8-16-21-16-38 0-12 4-25 16-37 9-8 21-17 38-17s25 4 37 17c9 8 17 21 17 37s-4 25-17 38c-12 12-25 17-37 17zm412 416H654V550c0-13-4-25-17-38-8-8-20-16-37-16s-25 4-38 16c-8 9-16 21-16 38v208H442V396h104v66l37-41c17-13 34-21 50-21 34 0 59 12 84 37 20 25 33 59 33 92v229h8z"/></svg>