<svg xmlns="http://www.w3.org/2000/svg" viewBox="0 0 1000 1000"><path d="M333 462v80h167c-4 41-17 50-37 79s-63 46-117 46c-25 0-46-5-67-13s-37-21-54-37c-17-17-29-34-38-55s-12-41-12-66 4-46 12-67 21-37 38-54 33-29 54-38c21-8 42-12 67-12s50 4 67 12c16 9 33 17 41 30l75-71c-25-21-50-38-79-50s-62-17-100-17c-37 0-75 8-104 21s-63 33-88 58-45 54-58 88c-12 33-21 66-21 104s9 75 21 104c13 33 33 63 58 88s55 45 88 58 67 21 104 21c38 0 75-9 108-21s59-33 84-54c20-25 41-50 54-84s17-66 17-108v-25s0-21-5-21l-275 4zm584-4h-84v-83h-83v83h-83v84h83v83h83v-83h84v-84z"/></svg>