<svg xmlns="http://www.w3.org/2000/svg" viewBox="0 0 1000 1000"><path d="M204 458c0-4-4-12-4-25 0-4 0-12 4-21s9-16 13-20c0-9 0-13 4-25 4-9 4-17 12-21 0-42 17-88 46-133s63-80 104-100c42-21 96-30 155-30 41 0 83 9 125 25 16 9 29 13 45 21 13 8 25 17 34 25s16 21 25 33 16 25 21 34c4 12 8 25 16 41 4 17 9 30 13 42s4 29 8 46c17 25 25 50 25 71 0 4 0 12-4 16-4 9-4 13-4 17 25 33 45 67 58 100 12 29 21 63 21 96 0 12-4 29-9 46-8 16-16 25-25 25-4 0-4 0-8-4-4 0-4-5-8-9s-4-8-8-12-5-9-9-13c0-4-4-8-8-12 0-4-4-9-4-9h-4c-17 46-38 84-63 105 4 8 17 12 29 16s25 13 34 21c8 8 12 17 16 29v9l-4 8c-21 29-67 46-142 46-16 0-33 0-54-4-17-5-33-5-46-9s-29-8-50-12l-12-4h-42c-12 12-33 25-62 29s-54 8-79 8h-34c-8 0-25 0-46-4-20 0-33-4-50-8-12-5-25-13-33-21s-17-17-17-29c0-13 0-21 5-30 4-4 8-12 20-20 5 0 13-5 21-5 9-4 17-4 25-4h9c-17-4-34-21-50-50s-30-54-34-75c0 0-4 4-4 9-4 12-17 25-25 33-12 8-25 17-37 17 0 0-5 0-5-5-8-16-12-33-12-45-13-80 25-150 108-209z"/></svg>