<svg xmlns="http://www.w3.org/2000/svg" viewBox="0 0 1000 1000"><path d="M917 167s-59 16-142 45-179 63-275 96c-96 34-192 67-271 96-83 29-125 46-129 46s-12 4-12 8 4 9 8 13c4 0 17 8 33 12 17 9 38 13 58 21s38 17 55 21l25 8 100 42 75-54c50-38 108-80 170-125s117-88 171-125c50-38 79-59 79-59h9s4 5 0 9c0 0-21 20-59 62s-79 83-120 133c-46 46-84 92-121 130l-75 83 29 12 33 17c21 13 46 25 75 42 30 12 55 29 75 42 25 12 38 20 42 20 4 5 13 5 21 0s12-8 12-16c0-5 9-38 21-96s29-121 46-192 29-133 46-187c12-59 21-88 21-92 0-8 12-13 8-17l-8 4zM375 825c0 4-4 8 0 8s4 0 8-4c5 0 9-8 25-21 13-12 30-25 42-41 17-13 29-25 42-38l21-17-138-75v188z"/></svg>