<svg xmlns="http://www.w3.org/2000/svg" viewBox="0 0 1000 1000"><path d="M933 225c-25 37-58 67-100 92v25c0 50 0 95-12 145s-33 96-58 138c-30 46-63 83-100 117-42 33-88 62-142 83s-117 29-179 29c-100 0-192-25-280-79h42c83 0 158-25 225-75-37 0-75-13-104-38-33-25-54-54-63-87h34c16 0 33 0 46-4-42-9-84-29-109-63-29-33-46-71-46-112 42 12 59 21 88 21-25-17-42-38-54-63s-21-54-21-87c0-34 8-63 25-92 46 54 100 100 162 133 67 34 134 50 209 54-4-12-4-29-4-41 0-50 16-92 54-125 33-34 79-54 129-54s96 20 129 58c42-8 79-21 117-46-13 42-42 75-79 100 29-4 58-12 91-29z"/></svg>