<svg xmlns="http://www.w3.org/2000/svg" viewBox="0 0 1000 1000"><path d="M500 646c42 0 75-13 104-42s42-62 42-104-13-75-42-104-62-42-104-42-75 13-104 42-42 62-42 104 13 75 42 104 62 42 104 42zm313-104l87 66c8 9 13 17 4 30l-83 145c-4 9-13 13-25 9l-104-42c-29 21-50 33-71 42l-17 108c-4 13-8 17-21 17H417c-9 0-17-4-21-17l-17-108c-25-9-50-25-71-42l-104 42c-12 4-21 0-25-9L96 638c-8-13-4-21 4-30l88-66v-84l-88-66c-8-9-12-17-4-30l83-145c4-9 13-13 25-9l104 42c30-21 50-33 71-42l17-108c4-13 8-17 21-17h166c9 0 17 4 21 17l17 108c25 9 50 25 71 42l104-42c12-4 21 0 25 9l83 145c9 13 4 21-4 30l-87 66v84z"/></svg>