<svg xmlns="http://www.w3.org/2000/svg" viewBox="0 0 1000 1000"><path d="M682 583c3-27 6-55 6-83s-3-56-6-83h141c6 26 10 54 10 83s-4 57-10 83M608 815c25-46 44-96 57-148h123c-40 68-103 122-180 148m-10-232H403c-5-27-7-55-7-83s2-56 7-83h195c3 27 6 55 6 83s-3 56-6 83m-98 249c-35-50-62-106-80-165h160c-17 59-45 115-80 165M333 333H212c39-69 103-122 180-148-25 46-44 96-59 148M212 667h121c15 52 34 102 59 148-77-26-141-80-180-148m-34-84c-7-26-11-54-11-83s4-57 11-83h140c-3 27-5 55-5 83s2 56 5 83m182-415c35 50 63 106 80 165H420c18-59 45-115 80-165m288 165H665c-13-52-32-102-57-148 77 26 140 79 180 148M500 83C270 83 83 271 83 500c0 230 187 417 417 417s417-187 417-417S730 83 500 83z"/></svg>