<svg xmlns="http://www.w3.org/2000/svg" viewBox="0 0 1000 1000"><path d="M321 325c0-13-4-21-8-29-9-9-17-9-25-9-13 0-21 5-30 9-8 8-12 16-12 29s4 21 12 25c9 8 21 8 30 8 12 0 20-4 25-8 4-8 8-17 8-25zm300 204c0-8-4-12-8-21s-17-8-25-8c-9 0-13 4-21 8-4 5-9 13-9 21s5 13 9 21c4 4 12 8 21 8 12 0 20-4 25-8s8-13 8-21zm-96-204c0-13-4-21-8-29-9-9-17-9-25-9-13 0-21 5-29 9-9 8-13 16-13 29s4 21 13 25 20 8 29 8c12 0 21-4 25-8 4-8 8-17 8-25zm258 204c0-8-4-12-8-21-8-4-17-8-25-8s-12 4-21 8c-4 5-8 13-8 21s4 13 8 21c4 4 13 8 21 8 13 0 21-4 25-8s8-13 8-21zM675 367h-29c-46 0-88 8-125 29s-67 50-92 83c-21 38-33 75-33 117 0 21 4 42 8 62h-71c-8 0-12-4-16-4s-13-4-21-4c-13-4-17-4-21-4l-100 50 29-88C125 554 88 487 88 408c0-46 12-87 41-125 25-37 63-66 109-91 45-21 95-34 145-34s92 9 134 25c41 17 79 42 108 75 25 34 42 71 50 109zm242 229c0 33-9 62-29 91-17 30-42 55-75 80l20 75-79-42c-42 8-71 17-87 17-46 0-88-9-125-30s-71-45-92-75c-21-33-33-66-33-108s12-75 33-108 50-58 92-79c37-21 79-30 125-30s83 9 125 30c37 20 70 45 91 79 21 25 34 62 34 100z"/></svg>