<svg xmlns="http://www.w3.org/2000/svg" viewBox="0 0 857.1 1000"><path d="M196 786v71H0v-71h196zm197-72q14 0 25 11t11 25v143q0 14-11 25t-25 11H250q-14 0-25-11t-11-25V750q0-15 11-25t25-11h143zm89-214v71H0v-71h482zM125 214v72H0v-72h125zm732 572v71H446v-71h411zM321 143q15 0 26 10t10 26v142q0 15-10 25t-26 11H179q-15 0-25-11t-11-25V179q0-15 11-26t25-10h142zm358 286q14 0 25 10t10 25v143q0 15-10 25t-25 11H536q-15 0-25-11t-11-25V464q0-14 11-25t25-10h143zm178 71v71H732v-71h125zm0-286v72H375v-72h482z"/></svg>