<svg xmlns="http://www.w3.org/2000/svg" viewBox="0 0 857.1 1000"><path d="M571 500q0-59-41-101t-101-42-101 42-42 101 42 101 101 42 101-42 41-101zm286-61v124q0 7-4 13t-11 7l-104 16q-10 30-21 51 19 27 59 77 6 6 6 13t-5 13q-15 21-55 61t-53 39q-7 0-14-5l-77-60q-25 13-51 21-9 76-16 104-4 16-20 16H367q-8 0-14-5t-6-12l-16-103q-27-9-50-21l-79 60q-6 5-14 5t-14-6q-70-64-92-94-4-5-4-13 0-6 5-12 8-12 28-37t30-40q-15-28-23-55L16 581q-7-1-11-7t-5-13V437q0-7 5-13t10-7l104-16q8-25 22-51-23-32-60-77-6-7-6-14 0-5 5-12 15-20 55-60t53-40q7 0 15 5l77 60q24-13 50-21 9-76 17-104 3-16 20-16h124q7 0 13 5t7 12l15 103q28 9 51 20l79-59q5-5 13-5 7 0 14 5 72 67 92 95 4 5 4 12t-4 13q-9 12-29 37t-30 40q15 28 23 54l102 16q7 1 12 7t4 13z"/></svg>