<svg xmlns="http://www.w3.org/2000/svg" viewBox="0 0 1000 1000"><path d="M620 773l-26 25q-5 6-12 6t-13-6L464 693 359 798q-5 6-12 6t-13-6l-25-25q-5-5-5-12t5-13l105-105-105-105q-5-6-5-13t5-12l25-26q5-5 13-5t12 5l105 105 105-105q6-5 13-5t12 5l26 26q5 5 5 12t-5 13L515 643l105 105q5 5 5 13t-5 12zM71 929h786V357H71v572zm215-679V89q0-8-5-13t-13-5h-36q-8 0-13 5t-5 13v161q0 8 5 13t13 5h36q8 0 13-5t5-13zm428 0V89q0-8-5-13t-13-5h-35q-8 0-13 5t-5 13v161q0 8 5 13t13 5h35q8 0 13-5t5-13zm215-36v715q0 29-22 50t-50 21H71q-29 0-50-21T0 929V214q0-29 21-50t50-21h72V89q0-37 26-63t63-26h36q37 0 63 26t26 63v54h214V89q0-37 27-63t63-26h35q37 0 64 26t26 63v54h71q29 0 50 21t22 50z"/></svg>